<?xml version="1.0" encoding="UTF-8" standalone="no"?><svg xmlns="http://www.w3.org/2000/svg" xmlns:xlink="http://www.w3.org/1999/xlink" contentScriptType="application/ecmascript" contentStyleType="text/css" height="1064px" preserveAspectRatio="none" style="width:667px;height:1064px;background:#FFFFFF;" version="1.1" viewBox="0 0 667 1064" width="667px" zoomAndPan="magnify"><defs><filter height="300%" id="f30l4szd3c2yq" width="300%" x="-1" y="-1"><feGaussianBlur result="blurOut" stdDeviation="2.0"/><feColorMatrix in="blurOut" result="blurOut2" type="matrix" values="0 0 0 0 0 0 0 0 0 0 0 0 0 0 0 0 0 0 .4 0"/><feOffset dx="4.0" dy="4.0" in="blurOut2" result="blurOut3"/><feBlend in="SourceGraphic" in2="blurOut3" mode="normal"/></filter></defs><g><!--MD5=[a70b0d373322012744ecc119c63f921b]
cluster main--><polygon fill="#FFFFFF" filter="url(#f30l4szd3c2yq)" points="16,6,55,6,62,29.6094,650,29.6094,650,461,16,461,16,6" style="stroke:#000000;stroke-width:1.5;"/><line style="stroke:#000000;stroke-width:1.5;" x1="16" x2="62" y1="29.6094" y2="29.6094"/><text fill="#000000" font-family="jetbrains mono" font-size="14" font-weight="bold" lengthAdjust="spacing" textLength="33" x="20" y="22.5332">main</text><!--MD5=[db65ce44d5e360fb4ec835f941dc7573]
cluster database--><polygon fill="#FFFFFF" filter="url(#f30l4szd3c2yq)" points="187,485,257,485,264,508.6094,632.5,508.6094,632.5,954,187,954,187,485" style="stroke:#000000;stroke-width:1.5;"/><line style="stroke:#000000;stroke-width:1.5;" x1="187" x2="264" y1="508.6094" y2="508.6094"/><text fill="#000000" font-family="jetbrains mono" font-size="14" font-weight="bold" lengthAdjust="spacing" textLength="64" x="191" y="501.5332">database</text><!--MD5=[36094054bf489a00fbf0da5a51dfcc87]
class main.dealership--><rect codeLine="21" fill="#CCCCCC" filter="url(#f30l4szd3c2yq)" height="26" id="main.dealership" style="stroke:#AAAAAA;stroke-width:1.5;" width="83" x="45" y="233"/><ellipse cx="57" cy="246" fill="#FF1700" rx="8" ry="8" style="stroke:#AAAAAA;stroke-width:1.0;"/><path d="M59.8125,250 L54.0156,250 L54.0156,242 L59.8125,242 L59.8125,243.5469 L56.0781,243.5469 L56.0781,244.9219 L59.5313,244.9219 L59.5313,246.4688 L56.0781,246.4688 L56.0781,248.4531 L59.8125,248.4531 L59.8125,250 Z " fill="#000000"/><text fill="#000000" font-family="jetbrains mono" font-size="11" lengthAdjust="spacing" textLength="57" x="68" y="250.501">Автосалон</text><!--MD5=[b0883ad7e061858df0066d067af00dff]
class main.cars--><rect codeLine="23" fill="#CCCCCC" filter="url(#f30l4szd3c2yq)" height="26" id="main.cars" style="stroke:#AAAAAA;stroke-width:1.5;" width="91" x="201" y="233"/><ellipse cx="213" cy="246" fill="#FF1700" rx="8" ry="8" style="stroke:#AAAAAA;stroke-width:1.0;"/><path d="M215.8125,250 L210.0156,250 L210.0156,242 L215.8125,242 L215.8125,243.5469 L212.0781,243.5469 L212.0781,244.9219 L215.5313,244.9219 L215.5313,246.4688 L212.0781,246.4688 L212.0781,248.4531 L215.8125,248.4531 L215.8125,250 Z " fill="#000000"/><text fill="#000000" font-family="jetbrains mono" font-size="11" lengthAdjust="spacing" textLength="65" x="224" y="250.501">Автомобили</text><!--MD5=[b1e7c5b4ba54108932698f279aca9799]
class main.salesdept--><rect codeLine="24" fill="#CCCCCC" filter="url(#f30l4szd3c2yq)" height="37.6719" id="main.salesdept" style="stroke:#AAAAAA;stroke-width:1.5;" width="64" x="214.5" y="115"/><ellipse cx="226.5" cy="133.8359" fill="#FF1700" rx="8" ry="8" style="stroke:#AAAAAA;stroke-width:1.0;"/><path d="M229.3125,137.8359 L223.5156,137.8359 L223.5156,129.8359 L229.3125,129.8359 L229.3125,131.3828 L225.5781,131.3828 L225.5781,132.7578 L229.0313,132.7578 L229.0313,134.3047 L225.5781,134.3047 L225.5781,136.2891 L229.3125,136.2891 L229.3125,137.8359 Z " fill="#000000"/><text fill="#000000" font-family="jetbrains mono" font-size="11" lengthAdjust="spacing" textLength="32" x="240.5" y="131.4189">Отдел</text><text fill="#000000" font-family="jetbrains mono" font-size="11" lengthAdjust="spacing" textLength="38" x="237.5" y="145.2549">продаж</text><!--MD5=[ee303f3e8a216a03b2b957e602b37d65]
class main.manager--><rect codeLine="25" fill="#CCCCCC" filter="url(#f30l4szd3c2yq)" height="26" id="main.manager" style="stroke:#AAAAAA;stroke-width:1.5;" width="78" x="207.5" y="317"/><ellipse cx="219.5" cy="330" fill="#FF1700" rx="8" ry="8" style="stroke:#AAAAAA;stroke-width:1.0;"/><path d="M222.3125,334 L216.5156,334 L216.5156,326 L222.3125,326 L222.3125,327.5469 L218.5781,327.5469 L218.5781,328.9219 L222.0313,328.9219 L222.0313,330.4688 L218.5781,330.4688 L218.5781,332.4531 L222.3125,332.4531 L222.3125,334 Z " fill="#000000"/><text fill="#000000" font-family="jetbrains mono" font-size="11" lengthAdjust="spacing" textLength="52" x="230.5" y="334.501">Менеджер</text><!--MD5=[1981e3cde82d484ceb485b75ab90b48e]
class main.caracc--><rect codeLine="27" fill="#CCCCCC" filter="url(#f30l4szd3c2yq)" height="37.6719" id="main.caracc" style="stroke:#AAAAAA;stroke-width:1.5;" width="95" x="361" y="407"/><ellipse cx="373" cy="425.8359" fill="#FFA600" rx="8" ry="8" style="stroke:#AAAAAA;stroke-width:1.0;"/><path d="M377.3594,427.3828 Q377.3594,427.9609 377.125,428.4219 Q376.8906,428.8828 376.4844,429.1797 Q376.0156,429.5391 375.4453,429.6875 Q374.875,429.8359 374.0156,429.8359 L370.5156,429.8359 L370.5156,421.8359 L373.625,421.8359 Q374.5938,421.8359 375.0391,421.8984 Q375.4844,421.9609 375.9219,422.1797 Q376.3906,422.4141 376.6094,422.8047 Q376.8281,423.1953 376.8281,423.6953 Q376.8281,424.2734 376.5234,424.7188 Q376.2188,425.1641 375.6563,425.4141 L375.6563,425.4453 Q376.4375,425.6016 376.8984,426.0938 Q377.3594,426.5859 377.3594,427.3828 Z M374.7188,424.1016 Q374.7188,423.8984 374.6172,423.7031 Q374.5156,423.5078 374.2656,423.4141 Q374.0469,423.3203 373.7109,423.3125 Q373.375,423.3047 372.7656,423.3047 L372.5781,423.3047 L372.5781,424.9922 L372.8906,424.9922 Q373.3906,424.9922 373.7344,424.9766 Q374.0781,424.9609 374.2656,424.8672 Q374.5469,424.7422 374.6328,424.5469 Q374.7188,424.3516 374.7188,424.1016 Z M375.2188,427.3516 Q375.2188,426.9766 375.0781,426.7656 Q374.9375,426.5547 374.5781,426.4609 Q374.3281,426.3828 373.9063,426.3828 Q373.4844,426.3828 373.0313,426.3828 L372.5781,426.3828 L372.5781,428.3672 L372.7188,428.3672 Q373.5938,428.3672 373.9688,428.3594 Q374.3438,428.3516 374.6563,428.2266 Q374.9844,428.0859 375.1016,427.8672 Q375.2188,427.6484 375.2188,427.3516 Z " fill="#000000"/><text fill="#000000" font-family="jetbrains mono" font-size="11" lengthAdjust="spacing" textLength="25" x="406" y="423.4189">Учет</text><text fill="#000000" font-family="jetbrains mono" font-size="11" lengthAdjust="spacing" textLength="69" x="384" y="437.2549">автомобилей</text><!--MD5=[05599f8c134272ee3412c521391d6555]
class main.carbuy--><rect codeLine="28" fill="#CCCCCC" filter="url(#f30l4szd3c2yq)" height="37.6719" id="main.carbuy" style="stroke:#AAAAAA;stroke-width:1.5;" width="95" x="361" y="334"/><ellipse cx="373" cy="352.8359" fill="#FFA600" rx="8" ry="8" style="stroke:#AAAAAA;stroke-width:1.0;"/><path d="M377.3594,354.3828 Q377.3594,354.9609 377.125,355.4219 Q376.8906,355.8828 376.4844,356.1797 Q376.0156,356.5391 375.4453,356.6875 Q374.875,356.8359 374.0156,356.8359 L370.5156,356.8359 L370.5156,348.8359 L373.625,348.8359 Q374.5938,348.8359 375.0391,348.8984 Q375.4844,348.9609 375.9219,349.1797 Q376.3906,349.4141 376.6094,349.8047 Q376.8281,350.1953 376.8281,350.6953 Q376.8281,351.2734 376.5234,351.7188 Q376.2188,352.1641 375.6563,352.4141 L375.6563,352.4453 Q376.4375,352.6016 376.8984,353.0938 Q377.3594,353.5859 377.3594,354.3828 Z M374.7188,351.1016 Q374.7188,350.8984 374.6172,350.7031 Q374.5156,350.5078 374.2656,350.4141 Q374.0469,350.3203 373.7109,350.3125 Q373.375,350.3047 372.7656,350.3047 L372.5781,350.3047 L372.5781,351.9922 L372.8906,351.9922 Q373.3906,351.9922 373.7344,351.9766 Q374.0781,351.9609 374.2656,351.8672 Q374.5469,351.7422 374.6328,351.5469 Q374.7188,351.3516 374.7188,351.1016 Z M375.2188,354.3516 Q375.2188,353.9766 375.0781,353.7656 Q374.9375,353.5547 374.5781,353.4609 Q374.3281,353.3828 373.9063,353.3828 Q373.4844,353.3828 373.0313,353.3828 L372.5781,353.3828 L372.5781,355.3672 L372.7188,355.3672 Q373.5938,355.3672 373.9688,355.3594 Q374.3438,355.3516 374.6563,355.2266 Q374.9844,355.0859 375.1016,354.8672 Q375.2188,354.6484 375.2188,354.3516 Z " fill="#000000"/><text fill="#000000" font-family="jetbrains mono" font-size="11" lengthAdjust="spacing" textLength="41" x="398" y="350.4189">Закупка</text><text fill="#000000" font-family="jetbrains mono" font-size="11" lengthAdjust="spacing" textLength="69" x="384" y="364.2549">автомобилей</text><!--MD5=[fd03c729b0ce64510f31b0acf8b7d7ef]
class main.carsell--><rect codeLine="29" fill="#CCCCCC" filter="url(#f30l4szd3c2yq)" height="37.6719" id="main.carsell" style="stroke:#AAAAAA;stroke-width:1.5;" width="95" x="361" y="261"/><ellipse cx="373" cy="279.8359" fill="#FFA600" rx="8" ry="8" style="stroke:#AAAAAA;stroke-width:1.0;"/><path d="M377.3594,281.3828 Q377.3594,281.9609 377.125,282.4219 Q376.8906,282.8828 376.4844,283.1797 Q376.0156,283.5391 375.4453,283.6875 Q374.875,283.8359 374.0156,283.8359 L370.5156,283.8359 L370.5156,275.8359 L373.625,275.8359 Q374.5938,275.8359 375.0391,275.8984 Q375.4844,275.9609 375.9219,276.1797 Q376.3906,276.4141 376.6094,276.8047 Q376.8281,277.1953 376.8281,277.6953 Q376.8281,278.2734 376.5234,278.7188 Q376.2188,279.1641 375.6563,279.4141 L375.6563,279.4453 Q376.4375,279.6016 376.8984,280.0938 Q377.3594,280.5859 377.3594,281.3828 Z M374.7188,278.1016 Q374.7188,277.8984 374.6172,277.7031 Q374.5156,277.5078 374.2656,277.4141 Q374.0469,277.3203 373.7109,277.3125 Q373.375,277.3047 372.7656,277.3047 L372.5781,277.3047 L372.5781,278.9922 L372.8906,278.9922 Q373.3906,278.9922 373.7344,278.9766 Q374.0781,278.9609 374.2656,278.8672 Q374.5469,278.7422 374.6328,278.5469 Q374.7188,278.3516 374.7188,278.1016 Z M375.2188,281.3516 Q375.2188,280.9766 375.0781,280.7656 Q374.9375,280.5547 374.5781,280.4609 Q374.3281,280.3828 373.9063,280.3828 Q373.4844,280.3828 373.0313,280.3828 L372.5781,280.3828 L372.5781,282.3672 L372.7188,282.3672 Q373.5938,282.3672 373.9688,282.3594 Q374.3438,282.3516 374.6563,282.2266 Q374.9844,282.0859 375.1016,281.8672 Q375.2188,281.6484 375.2188,281.3516 Z " fill="#000000"/><text fill="#000000" font-family="jetbrains mono" font-size="11" lengthAdjust="spacing" textLength="45" x="396" y="277.4189">Продажа</text><text fill="#000000" font-family="jetbrains mono" font-size="11" lengthAdjust="spacing" textLength="69" x="384" y="291.2549">автомобилей</text><!--MD5=[ed0acf320ef9f3697b2ffe0d4f5ac4a2]
class main.carinfo--><rect codeLine="30" fill="#CCCCCC" filter="url(#f30l4szd3c2yq)" height="37.6719" id="main.carinfo" style="stroke:#AAAAAA;stroke-width:1.5;" width="106" x="355.5" y="188"/><ellipse cx="367.5" cy="206.8359" fill="#FFA600" rx="8" ry="8" style="stroke:#AAAAAA;stroke-width:1.0;"/><path d="M371.8594,208.3828 Q371.8594,208.9609 371.625,209.4219 Q371.3906,209.8828 370.9844,210.1797 Q370.5156,210.5391 369.9453,210.6875 Q369.375,210.8359 368.5156,210.8359 L365.0156,210.8359 L365.0156,202.8359 L368.125,202.8359 Q369.0938,202.8359 369.5391,202.8984 Q369.9844,202.9609 370.4219,203.1797 Q370.8906,203.4141 371.1094,203.8047 Q371.3281,204.1953 371.3281,204.6953 Q371.3281,205.2734 371.0234,205.7188 Q370.7188,206.1641 370.1563,206.4141 L370.1563,206.4453 Q370.9375,206.6016 371.3984,207.0938 Q371.8594,207.5859 371.8594,208.3828 Z M369.2188,205.1016 Q369.2188,204.8984 369.1172,204.7031 Q369.0156,204.5078 368.7656,204.4141 Q368.5469,204.3203 368.2109,204.3125 Q367.875,204.3047 367.2656,204.3047 L367.0781,204.3047 L367.0781,205.9922 L367.3906,205.9922 Q367.8906,205.9922 368.2344,205.9766 Q368.5781,205.9609 368.7656,205.8672 Q369.0469,205.7422 369.1328,205.5469 Q369.2188,205.3516 369.2188,205.1016 Z M369.7188,208.3516 Q369.7188,207.9766 369.5781,207.7656 Q369.4375,207.5547 369.0781,207.4609 Q368.8281,207.3828 368.4063,207.3828 Q367.9844,207.3828 367.5313,207.3828 L367.0781,207.3828 L367.0781,209.3672 L367.2188,209.3672 Q368.0938,209.3672 368.4688,209.3594 Q368.8438,209.3516 369.1563,209.2266 Q369.4844,209.0859 369.6016,208.8672 Q369.7188,208.6484 369.7188,208.3516 Z " fill="#000000"/><text fill="#000000" font-family="jetbrains mono" font-size="11" lengthAdjust="spacing" textLength="80" x="378.5" y="204.4189">Представление</text><text fill="#000000" font-family="jetbrains mono" font-size="11" lengthAdjust="spacing" textLength="64" x="386.5" y="218.2549">информации</text><!--MD5=[f0eb2ccf1035e988da72f3819c22500d]
class main.specs--><rect codeLine="32" fill="#CCCCCC" filter="url(#f30l4szd3c2yq)" height="26" id="main.specs" style="stroke:#AAAAAA;stroke-width:1.5;" width="109" x="525" y="225"/><ellipse cx="537" cy="238" fill="#FF1700" rx="8" ry="8" style="stroke:#AAAAAA;stroke-width:1.0;"/><path d="M539.8125,242 L534.0156,242 L534.0156,234 L539.8125,234 L539.8125,235.5469 L536.0781,235.5469 L536.0781,236.9219 L539.5313,236.9219 L539.5313,238.4688 L536.0781,238.4688 L536.0781,240.4531 L539.8125,240.4531 L539.8125,242 Z " fill="#000000"/><text fill="#000000" font-family="jetbrains mono" font-size="11" lengthAdjust="spacing" textLength="83" x="548" y="242.501">Характеристики</text><!--MD5=[915e709440474712b2b5a556819b693d]
class main.price--><rect codeLine="33" fill="#CCCCCC" filter="url(#f30l4szd3c2yq)" height="26" id="main.price" style="stroke:#AAAAAA;stroke-width:1.5;" width="51" x="554" y="164"/><ellipse cx="566" cy="177" fill="#FF1700" rx="8" ry="8" style="stroke:#AAAAAA;stroke-width:1.0;"/><path d="M568.8125,181 L563.0156,181 L563.0156,173 L568.8125,173 L568.8125,174.5469 L565.0781,174.5469 L565.0781,175.9219 L568.5313,175.9219 L568.5313,177.4688 L565.0781,177.4688 L565.0781,179.4531 L568.8125,179.4531 L568.8125,181 Z " fill="#000000"/><text fill="#000000" font-family="jetbrains mono" font-size="11" lengthAdjust="spacing" textLength="25" x="577" y="181.501">Цена</text><!--MD5=[0642ab1681a55bb0a55936fd181f6fe4]
class main.clientsearch--><rect codeLine="35" fill="#CCCCCC" filter="url(#f30l4szd3c2yq)" height="37.6719" id="main.clientsearch" style="stroke:#AAAAAA;stroke-width:1.5;" width="74" x="371.5" y="115"/><ellipse cx="383.5" cy="133.8359" fill="#4D6910" rx="8" ry="8" style="stroke:#AAAAAA;stroke-width:1.0;"/><path d="M384.1406,137.9922 Q383.25,137.9922 382.4922,137.7266 Q381.7344,137.4609 381.1875,136.9453 Q380.6563,136.4297 380.3516,135.6484 Q380.0469,134.8672 380.0469,133.8516 Q380.0469,132.8984 380.3359,132.125 Q380.625,131.3516 381.1719,130.7891 Q381.6875,130.2578 382.4609,129.9688 Q383.2344,129.6797 384.1406,129.6797 Q384.6406,129.6797 385.0469,129.7344 Q385.4531,129.7891 385.7969,129.8828 Q386.1563,129.9922 386.4531,130.1172 Q386.75,130.2422 386.9688,130.3516 L386.9688,132.2891 L386.7344,132.2891 Q386.5781,132.1641 386.3516,131.9844 Q386.125,131.8047 385.8281,131.6328 Q385.5313,131.4609 385.1875,131.3438 Q384.8438,131.2266 384.4531,131.2266 Q384.0156,131.2266 383.625,131.3594 Q383.2344,131.4922 382.9063,131.8203 Q382.5938,132.1172 382.3984,132.625 Q382.2031,133.1328 382.2031,133.8516 Q382.2031,134.6016 382.4141,135.1094 Q382.625,135.6172 382.9375,135.8984 Q383.2656,136.1953 383.6719,136.3203 Q384.0781,136.4453 384.4688,136.4453 Q384.8438,136.4453 385.2109,136.3359 Q385.5781,136.2266 385.8906,136.0234 Q386.1563,135.8828 386.3828,135.7031 Q386.6094,135.5234 386.75,135.3984 L386.9688,135.3984 L386.9688,137.3047 Q386.6719,137.4453 386.3984,137.5625 Q386.125,137.6797 385.8125,137.7578 Q385.4219,137.8672 385.0781,137.9297 Q384.7344,137.9922 384.1406,137.9922 Z " fill="#000000"/><text fill="#000000" font-family="jetbrains mono" font-size="11" lengthAdjust="spacing" textLength="30" x="403.5" y="131.4189">Поиск</text><text fill="#000000" font-family="jetbrains mono" font-size="11" lengthAdjust="spacing" textLength="48" x="394.5" y="145.2549">клиентов</text><!--MD5=[efeeb4dfaa81e4b86b4c72383fd84be8]
class main.clientattract--><rect codeLine="36" fill="#CCCCCC" filter="url(#f30l4szd3c2yq)" height="37.6719" id="main.clientattract" style="stroke:#AAAAAA;stroke-width:1.5;" width="94" x="361.5" y="42"/><ellipse cx="373.5" cy="60.8359" fill="#FFA600" rx="8" ry="8" style="stroke:#AAAAAA;stroke-width:1.0;"/><path d="M377.8594,62.3828 Q377.8594,62.9609 377.625,63.4219 Q377.3906,63.8828 376.9844,64.1797 Q376.5156,64.5391 375.9453,64.6875 Q375.375,64.8359 374.5156,64.8359 L371.0156,64.8359 L371.0156,56.8359 L374.125,56.8359 Q375.0938,56.8359 375.5391,56.8984 Q375.9844,56.9609 376.4219,57.1797 Q376.8906,57.4141 377.1094,57.8047 Q377.3281,58.1953 377.3281,58.6953 Q377.3281,59.2734 377.0234,59.7188 Q376.7188,60.1641 376.1563,60.4141 L376.1563,60.4453 Q376.9375,60.6016 377.3984,61.0938 Q377.8594,61.5859 377.8594,62.3828 Z M375.2188,59.1016 Q375.2188,58.8984 375.1172,58.7031 Q375.0156,58.5078 374.7656,58.4141 Q374.5469,58.3203 374.2109,58.3125 Q373.875,58.3047 373.2656,58.3047 L373.0781,58.3047 L373.0781,59.9922 L373.3906,59.9922 Q373.8906,59.9922 374.2344,59.9766 Q374.5781,59.9609 374.7656,59.8672 Q375.0469,59.7422 375.1328,59.5469 Q375.2188,59.3516 375.2188,59.1016 Z M375.7188,62.3516 Q375.7188,61.9766 375.5781,61.7656 Q375.4375,61.5547 375.0781,61.4609 Q374.8281,61.3828 374.4063,61.3828 Q373.9844,61.3828 373.5313,61.3828 L373.0781,61.3828 L373.0781,63.3672 L373.2188,63.3672 Q374.0938,63.3672 374.4688,63.3594 Q374.8438,63.3516 375.1563,63.2266 Q375.4844,63.0859 375.6016,62.8672 Q375.7188,62.6484 375.7188,62.3516 Z " fill="#000000"/><text fill="#000000" font-family="jetbrains mono" font-size="11" lengthAdjust="spacing" textLength="68" x="384.5" y="58.4189">Привлечение</text><text fill="#000000" font-family="jetbrains mono" font-size="11" lengthAdjust="spacing" textLength="48" x="394.5" y="72.2549">клиентов</text><!--MD5=[cfefad7ec15792efd033b760ba6927a8]
class main.reserve--><rect codeLine="38" fill="#CCCCCC" filter="url(#f30l4szd3c2yq)" height="37.6719" id="main.reserve" style="stroke:#AAAAAA;stroke-width:1.5;" width="109" x="32" y="347"/><ellipse cx="44" cy="365.8359" fill="#4D6910" rx="8" ry="8" style="stroke:#AAAAAA;stroke-width:1.0;"/><path d="M44.6406,369.9922 Q43.75,369.9922 42.9922,369.7266 Q42.2344,369.4609 41.6875,368.9453 Q41.1563,368.4297 40.8516,367.6484 Q40.5469,366.8672 40.5469,365.8516 Q40.5469,364.8984 40.8359,364.125 Q41.125,363.3516 41.6719,362.7891 Q42.1875,362.2578 42.9609,361.9688 Q43.7344,361.6797 44.6406,361.6797 Q45.1406,361.6797 45.5469,361.7344 Q45.9531,361.7891 46.2969,361.8828 Q46.6563,361.9922 46.9531,362.1172 Q47.25,362.2422 47.4688,362.3516 L47.4688,364.2891 L47.2344,364.2891 Q47.0781,364.1641 46.8516,363.9844 Q46.625,363.8047 46.3281,363.6328 Q46.0313,363.4609 45.6875,363.3438 Q45.3438,363.2266 44.9531,363.2266 Q44.5156,363.2266 44.125,363.3594 Q43.7344,363.4922 43.4063,363.8203 Q43.0938,364.1172 42.8984,364.625 Q42.7031,365.1328 42.7031,365.8516 Q42.7031,366.6016 42.9141,367.1094 Q43.125,367.6172 43.4375,367.8984 Q43.7656,368.1953 44.1719,368.3203 Q44.5781,368.4453 44.9688,368.4453 Q45.3438,368.4453 45.7109,368.3359 Q46.0781,368.2266 46.3906,368.0234 Q46.6563,367.8828 46.8828,367.7031 Q47.1094,367.5234 47.25,367.3984 L47.4688,367.3984 L47.4688,369.3047 Q47.1719,369.4453 46.8984,369.5625 Q46.625,369.6797 46.3125,369.7578 Q45.9219,369.8672 45.5781,369.9297 Q45.2344,369.9922 44.6406,369.9922 Z " fill="#000000"/><text fill="#000000" font-family="jetbrains mono" font-size="11" lengthAdjust="spacing" textLength="83" x="55" y="363.4189">Осуществление</text><text fill="#000000" font-family="jetbrains mono" font-size="11" lengthAdjust="spacing" textLength="73" x="60" y="377.2549">бронирования</text><!--MD5=[451d9a5c8e5bef0606e259201944c865]
class database.basedialog--><rect codeLine="42" fill="#CCCCCC" filter="url(#f30l4szd3c2yq)" height="37.6719" id="database.basedialog" style="stroke:#AAAAAA;stroke-width:1.5;" width="87" x="203" y="667"/><ellipse cx="215" cy="685.8359" fill="#FFA600" rx="8" ry="8" style="stroke:#AAAAAA;stroke-width:1.0;"/><path d="M219.3594,687.3828 Q219.3594,687.9609 219.125,688.4219 Q218.8906,688.8828 218.4844,689.1797 Q218.0156,689.5391 217.4453,689.6875 Q216.875,689.8359 216.0156,689.8359 L212.5156,689.8359 L212.5156,681.8359 L215.625,681.8359 Q216.5938,681.8359 217.0391,681.8984 Q217.4844,681.9609 217.9219,682.1797 Q218.3906,682.4141 218.6094,682.8047 Q218.8281,683.1953 218.8281,683.6953 Q218.8281,684.2734 218.5234,684.7188 Q218.2188,685.1641 217.6563,685.4141 L217.6563,685.4453 Q218.4375,685.6016 218.8984,686.0938 Q219.3594,686.5859 219.3594,687.3828 Z M216.7188,684.1016 Q216.7188,683.8984 216.6172,683.7031 Q216.5156,683.5078 216.2656,683.4141 Q216.0469,683.3203 215.7109,683.3125 Q215.375,683.3047 214.7656,683.3047 L214.5781,683.3047 L214.5781,684.9922 L214.8906,684.9922 Q215.3906,684.9922 215.7344,684.9766 Q216.0781,684.9609 216.2656,684.8672 Q216.5469,684.7422 216.6328,684.5469 Q216.7188,684.3516 216.7188,684.1016 Z M217.2188,687.3516 Q217.2188,686.9766 217.0781,686.7656 Q216.9375,686.5547 216.5781,686.4609 Q216.3281,686.3828 215.9063,686.3828 Q215.4844,686.3828 215.0313,686.3828 L214.5781,686.3828 L214.5781,688.3672 L214.7188,688.3672 Q215.5938,688.3672 215.9688,688.3594 Q216.3438,688.3516 216.6563,688.2266 Q216.9844,688.0859 217.1016,687.8672 Q217.2188,687.6484 217.2188,687.3516 Z " fill="#000000"/><text fill="#000000" font-family="jetbrains mono" font-size="11" lengthAdjust="spacing" textLength="61" x="226" y="683.4189">Диалоговое</text><text fill="#000000" font-family="jetbrains mono" font-size="11" lengthAdjust="spacing" textLength="41" x="236" y="697.2549">окно БД</text><!--MD5=[2fb22f31415fc8fae699bac2097932f0]
class database.dwinfoclient--><rect codeLine="44" fill="#CCCCCC" filter="url(#f30l4szd3c2yq)" height="37.6719" id="database.dwinfoclient" style="stroke:#AAAAAA;stroke-width:1.5;" width="113" x="352" y="900"/><ellipse cx="364" cy="918.8359" fill="#FFA600" rx="8" ry="8" style="stroke:#AAAAAA;stroke-width:1.0;"/><path d="M368.3594,920.3828 Q368.3594,920.9609 368.125,921.4219 Q367.8906,921.8828 367.4844,922.1797 Q367.0156,922.5391 366.4453,922.6875 Q365.875,922.8359 365.0156,922.8359 L361.5156,922.8359 L361.5156,914.8359 L364.625,914.8359 Q365.5938,914.8359 366.0391,914.8984 Q366.4844,914.9609 366.9219,915.1797 Q367.3906,915.4141 367.6094,915.8047 Q367.8281,916.1953 367.8281,916.6953 Q367.8281,917.2734 367.5234,917.7188 Q367.2188,918.1641 366.6563,918.4141 L366.6563,918.4453 Q367.4375,918.6016 367.8984,919.0938 Q368.3594,919.5859 368.3594,920.3828 Z M365.7188,917.1016 Q365.7188,916.8984 365.6172,916.7031 Q365.5156,916.5078 365.2656,916.4141 Q365.0469,916.3203 364.7109,916.3125 Q364.375,916.3047 363.7656,916.3047 L363.5781,916.3047 L363.5781,917.9922 L363.8906,917.9922 Q364.3906,917.9922 364.7344,917.9766 Q365.0781,917.9609 365.2656,917.8672 Q365.5469,917.7422 365.6328,917.5469 Q365.7188,917.3516 365.7188,917.1016 Z M366.2188,920.3516 Q366.2188,919.9766 366.0781,919.7656 Q365.9375,919.5547 365.5781,919.4609 Q365.3281,919.3828 364.9063,919.3828 Q364.4844,919.3828 364.0313,919.3828 L363.5781,919.3828 L363.5781,921.3672 L363.7188,921.3672 Q364.5938,921.3672 364.9688,921.3594 Q365.3438,921.3516 365.6563,921.2266 Q365.9844,921.0859 366.1016,920.8672 Q366.2188,920.6484 366.2188,920.3516 Z " fill="#000000"/><text fill="#000000" font-family="jetbrains mono" font-size="11" lengthAdjust="spacing" textLength="87" x="375" y="916.4189">Диалоговое окно</text><text fill="#000000" font-family="jetbrains mono" font-size="11" lengthAdjust="spacing" textLength="82" x="377.5" y="930.2549">данных клиента</text><!--MD5=[a22dd6b9dfcd0645e38aceadbe706181]
class database.dwinfocar--><rect codeLine="45" fill="#CCCCCC" filter="url(#f30l4szd3c2yq)" height="51.5078" id="database.dwinfocar" style="stroke:#AAAAAA;stroke-width:1.5;" width="113" x="352" y="813"/><ellipse cx="364" cy="838.7539" fill="#FFA600" rx="8" ry="8" style="stroke:#AAAAAA;stroke-width:1.0;"/><path d="M368.3594,840.3008 Q368.3594,840.8789 368.125,841.3398 Q367.8906,841.8008 367.4844,842.0977 Q367.0156,842.457 366.4453,842.6055 Q365.875,842.7539 365.0156,842.7539 L361.5156,842.7539 L361.5156,834.7539 L364.625,834.7539 Q365.5938,834.7539 366.0391,834.8164 Q366.4844,834.8789 366.9219,835.0977 Q367.3906,835.332 367.6094,835.7227 Q367.8281,836.1133 367.8281,836.6133 Q367.8281,837.1914 367.5234,837.6367 Q367.2188,838.082 366.6563,838.332 L366.6563,838.3633 Q367.4375,838.5195 367.8984,839.0117 Q368.3594,839.5039 368.3594,840.3008 Z M365.7188,837.0195 Q365.7188,836.8164 365.6172,836.6211 Q365.5156,836.4258 365.2656,836.332 Q365.0469,836.2383 364.7109,836.2305 Q364.375,836.2227 363.7656,836.2227 L363.5781,836.2227 L363.5781,837.9102 L363.8906,837.9102 Q364.3906,837.9102 364.7344,837.8945 Q365.0781,837.8789 365.2656,837.7852 Q365.5469,837.6602 365.6328,837.4648 Q365.7188,837.2695 365.7188,837.0195 Z M366.2188,840.2695 Q366.2188,839.8945 366.0781,839.6836 Q365.9375,839.4727 365.5781,839.3789 Q365.3281,839.3008 364.9063,839.3008 Q364.4844,839.3008 364.0313,839.3008 L363.5781,839.3008 L363.5781,841.2852 L363.7188,841.2852 Q364.5938,841.2852 364.9688,841.2773 Q365.3438,841.2695 365.6563,841.1445 Q365.9844,841.0039 366.1016,840.7852 Q366.2188,840.5664 366.2188,840.2695 Z " fill="#000000"/><text fill="#000000" font-family="jetbrains mono" font-size="11" lengthAdjust="spacing" textLength="87" x="375" y="829.4189">Диалоговое окно</text><text fill="#000000" font-family="jetbrains mono" font-size="11" lengthAdjust="spacing" textLength="64" x="386.5" y="843.2549">информации</text><text fill="#000000" font-family="jetbrains mono" font-size="11" lengthAdjust="spacing" textLength="78" x="379.5" y="857.0908">об автомобиле</text><!--MD5=[cb152c6db0afeee81ad76514b32cf649]
class database.dwpaystatus--><rect codeLine="46" fill="#CCCCCC" filter="url(#f30l4szd3c2yq)" height="37.6719" id="database.dwpaystatus" style="stroke:#AAAAAA;stroke-width:1.5;" width="113" x="352" y="740"/><ellipse cx="364" cy="758.8359" fill="#FFA600" rx="8" ry="8" style="stroke:#AAAAAA;stroke-width:1.0;"/><path d="M368.3594,760.3828 Q368.3594,760.9609 368.125,761.4219 Q367.8906,761.8828 367.4844,762.1797 Q367.0156,762.5391 366.4453,762.6875 Q365.875,762.8359 365.0156,762.8359 L361.5156,762.8359 L361.5156,754.8359 L364.625,754.8359 Q365.5938,754.8359 366.0391,754.8984 Q366.4844,754.9609 366.9219,755.1797 Q367.3906,755.4141 367.6094,755.8047 Q367.8281,756.1953 367.8281,756.6953 Q367.8281,757.2734 367.5234,757.7188 Q367.2188,758.1641 366.6563,758.4141 L366.6563,758.4453 Q367.4375,758.6016 367.8984,759.0938 Q368.3594,759.5859 368.3594,760.3828 Z M365.7188,757.1016 Q365.7188,756.8984 365.6172,756.7031 Q365.5156,756.5078 365.2656,756.4141 Q365.0469,756.3203 364.7109,756.3125 Q364.375,756.3047 363.7656,756.3047 L363.5781,756.3047 L363.5781,757.9922 L363.8906,757.9922 Q364.3906,757.9922 364.7344,757.9766 Q365.0781,757.9609 365.2656,757.8672 Q365.5469,757.7422 365.6328,757.5469 Q365.7188,757.3516 365.7188,757.1016 Z M366.2188,760.3516 Q366.2188,759.9766 366.0781,759.7656 Q365.9375,759.5547 365.5781,759.4609 Q365.3281,759.3828 364.9063,759.3828 Q364.4844,759.3828 364.0313,759.3828 L363.5781,759.3828 L363.5781,761.3672 L363.7188,761.3672 Q364.5938,761.3672 364.9688,761.3594 Q365.3438,761.3516 365.6563,761.2266 Q365.9844,761.0859 366.1016,760.8672 Q366.2188,760.6484 366.2188,760.3516 Z " fill="#000000"/><text fill="#000000" font-family="jetbrains mono" font-size="11" lengthAdjust="spacing" textLength="87" x="375" y="756.4189">Диалоговое окно</text><text fill="#000000" font-family="jetbrains mono" font-size="11" lengthAdjust="spacing" textLength="83" x="377" y="770.2549">статуса оплаты</text><!--MD5=[ff5b31d3fbc48973ad2969e754254924]
class database.controlpanel--><rect codeLine="48" fill="#CCCCCC" filter="url(#f30l4szd3c2yq)" height="37.6719" id="database.controlpanel" style="stroke:#AAAAAA;stroke-width:1.5;" width="87" x="365" y="667"/><ellipse cx="377" cy="685.8359" fill="#FFA600" rx="8" ry="8" style="stroke:#AAAAAA;stroke-width:1.0;"/><path d="M381.3594,687.3828 Q381.3594,687.9609 381.125,688.4219 Q380.8906,688.8828 380.4844,689.1797 Q380.0156,689.5391 379.4453,689.6875 Q378.875,689.8359 378.0156,689.8359 L374.5156,689.8359 L374.5156,681.8359 L377.625,681.8359 Q378.5938,681.8359 379.0391,681.8984 Q379.4844,681.9609 379.9219,682.1797 Q380.3906,682.4141 380.6094,682.8047 Q380.8281,683.1953 380.8281,683.6953 Q380.8281,684.2734 380.5234,684.7188 Q380.2188,685.1641 379.6563,685.4141 L379.6563,685.4453 Q380.4375,685.6016 380.8984,686.0938 Q381.3594,686.5859 381.3594,687.3828 Z M378.7188,684.1016 Q378.7188,683.8984 378.6172,683.7031 Q378.5156,683.5078 378.2656,683.4141 Q378.0469,683.3203 377.7109,683.3125 Q377.375,683.3047 376.7656,683.3047 L376.5781,683.3047 L376.5781,684.9922 L376.8906,684.9922 Q377.3906,684.9922 377.7344,684.9766 Q378.0781,684.9609 378.2656,684.8672 Q378.5469,684.7422 378.6328,684.5469 Q378.7188,684.3516 378.7188,684.1016 Z M379.2188,687.3516 Q379.2188,686.9766 379.0781,686.7656 Q378.9375,686.5547 378.5781,686.4609 Q378.3281,686.3828 377.9063,686.3828 Q377.4844,686.3828 377.0313,686.3828 L376.5781,686.3828 L376.5781,688.3672 L376.7188,688.3672 Q377.5938,688.3672 377.9688,688.3594 Q378.3438,688.3516 378.6563,688.2266 Q378.9844,688.0859 379.1016,687.8672 Q379.2188,687.6484 379.2188,687.3516 Z " fill="#000000"/><text fill="#000000" font-family="jetbrains mono" font-size="11" lengthAdjust="spacing" textLength="37" x="400" y="683.4189">Панель</text><text fill="#000000" font-family="jetbrains mono" font-size="11" lengthAdjust="spacing" textLength="61" x="388" y="697.2549">управления</text><!--MD5=[95383d1d651cb3fad0611632795a2431]
class database.tablist--><rect codeLine="49" fill="#CCCCCC" filter="url(#f30l4szd3c2yq)" height="37.6719" id="database.tablist" style="stroke:#AAAAAA;stroke-width:1.5;" width="67" x="375" y="594"/><ellipse cx="387" cy="612.8359" fill="#FFA600" rx="8" ry="8" style="stroke:#AAAAAA;stroke-width:1.0;"/><path d="M391.3594,614.3828 Q391.3594,614.9609 391.125,615.4219 Q390.8906,615.8828 390.4844,616.1797 Q390.0156,616.5391 389.4453,616.6875 Q388.875,616.8359 388.0156,616.8359 L384.5156,616.8359 L384.5156,608.8359 L387.625,608.8359 Q388.5938,608.8359 389.0391,608.8984 Q389.4844,608.9609 389.9219,609.1797 Q390.3906,609.4141 390.6094,609.8047 Q390.8281,610.1953 390.8281,610.6953 Q390.8281,611.2734 390.5234,611.7188 Q390.2188,612.1641 389.6563,612.4141 L389.6563,612.4453 Q390.4375,612.6016 390.8984,613.0938 Q391.3594,613.5859 391.3594,614.3828 Z M388.7188,611.1016 Q388.7188,610.8984 388.6172,610.7031 Q388.5156,610.5078 388.2656,610.4141 Q388.0469,610.3203 387.7109,610.3125 Q387.375,610.3047 386.7656,610.3047 L386.5781,610.3047 L386.5781,611.9922 L386.8906,611.9922 Q387.3906,611.9922 387.7344,611.9766 Q388.0781,611.9609 388.2656,611.8672 Q388.5469,611.7422 388.6328,611.5469 Q388.7188,611.3516 388.7188,611.1016 Z M389.2188,614.3516 Q389.2188,613.9766 389.0781,613.7656 Q388.9375,613.5547 388.5781,613.4609 Q388.3281,613.3828 387.9063,613.3828 Q387.4844,613.3828 387.0313,613.3828 L386.5781,613.3828 L386.5781,615.3672 L386.7188,615.3672 Q387.5938,615.3672 387.9688,615.3594 Q388.3438,615.3516 388.6563,615.2266 Q388.9844,615.0859 389.1016,614.8672 Q389.2188,614.6484 389.2188,614.3516 Z " fill="#000000"/><text fill="#000000" font-family="jetbrains mono" font-size="11" lengthAdjust="spacing" textLength="31" x="403" y="610.4189">Набор</text><text fill="#000000" font-family="jetbrains mono" font-size="11" lengthAdjust="spacing" textLength="41" x="398" y="624.2549">вкладок</text><!--MD5=[de798eb3e1940d4a8898341cd5ec7f55]
class database.appaccsystem--><rect codeLine="50" fill="#CCCCCC" filter="url(#f30l4szd3c2yq)" height="37.6719" id="database.appaccsystem" style="stroke:#AAAAAA;stroke-width:1.5;" width="94" x="361.5" y="521"/><ellipse cx="373.5" cy="539.8359" fill="#FFA600" rx="8" ry="8" style="stroke:#AAAAAA;stroke-width:1.0;"/><path d="M377.8594,541.3828 Q377.8594,541.9609 377.625,542.4219 Q377.3906,542.8828 376.9844,543.1797 Q376.5156,543.5391 375.9453,543.6875 Q375.375,543.8359 374.5156,543.8359 L371.0156,543.8359 L371.0156,535.8359 L374.125,535.8359 Q375.0938,535.8359 375.5391,535.8984 Q375.9844,535.9609 376.4219,536.1797 Q376.8906,536.4141 377.1094,536.8047 Q377.3281,537.1953 377.3281,537.6953 Q377.3281,538.2734 377.0234,538.7188 Q376.7188,539.1641 376.1563,539.4141 L376.1563,539.4453 Q376.9375,539.6016 377.3984,540.0938 Q377.8594,540.5859 377.8594,541.3828 Z M375.2188,538.1016 Q375.2188,537.8984 375.1172,537.7031 Q375.0156,537.5078 374.7656,537.4141 Q374.5469,537.3203 374.2109,537.3125 Q373.875,537.3047 373.2656,537.3047 L373.0781,537.3047 L373.0781,538.9922 L373.3906,538.9922 Q373.8906,538.9922 374.2344,538.9766 Q374.5781,538.9609 374.7656,538.8672 Q375.0469,538.7422 375.1328,538.5469 Q375.2188,538.3516 375.2188,538.1016 Z M375.7188,541.3516 Q375.7188,540.9766 375.5781,540.7656 Q375.4375,540.5547 375.0781,540.4609 Q374.8281,540.3828 374.4063,540.3828 Q373.9844,540.3828 373.5313,540.3828 L373.0781,540.3828 L373.0781,542.3672 L373.2188,542.3672 Q374.0938,542.3672 374.4688,542.3594 Q374.8438,542.3516 375.1563,542.2266 Q375.4844,542.0859 375.6016,541.8672 Q375.7188,541.6484 375.7188,541.3516 Z " fill="#000000"/><text fill="#000000" font-family="jetbrains mono" font-size="11" lengthAdjust="spacing" textLength="45" x="396" y="537.4189">Система</text><text fill="#000000" font-family="jetbrains mono" font-size="11" lengthAdjust="spacing" textLength="68" x="384.5" y="551.2549">учета заявок</text><!--MD5=[18326712a26f197636d7dbe8debd9333]
class database.appclients--><rect codeLine="52" fill="#CCCCCC" filter="url(#f30l4szd3c2yq)" height="37.6719" id="database.appclients" style="stroke:#AAAAAA;stroke-width:1.5;" width="74" x="542.5" y="594"/><ellipse cx="554.5" cy="612.8359" fill="#FFA600" rx="8" ry="8" style="stroke:#AAAAAA;stroke-width:1.0;"/><path d="M558.8594,614.3828 Q558.8594,614.9609 558.625,615.4219 Q558.3906,615.8828 557.9844,616.1797 Q557.5156,616.5391 556.9453,616.6875 Q556.375,616.8359 555.5156,616.8359 L552.0156,616.8359 L552.0156,608.8359 L555.125,608.8359 Q556.0938,608.8359 556.5391,608.8984 Q556.9844,608.9609 557.4219,609.1797 Q557.8906,609.4141 558.1094,609.8047 Q558.3281,610.1953 558.3281,610.6953 Q558.3281,611.2734 558.0234,611.7188 Q557.7188,612.1641 557.1563,612.4141 L557.1563,612.4453 Q557.9375,612.6016 558.3984,613.0938 Q558.8594,613.5859 558.8594,614.3828 Z M556.2188,611.1016 Q556.2188,610.8984 556.1172,610.7031 Q556.0156,610.5078 555.7656,610.4141 Q555.5469,610.3203 555.2109,610.3125 Q554.875,610.3047 554.2656,610.3047 L554.0781,610.3047 L554.0781,611.9922 L554.3906,611.9922 Q554.8906,611.9922 555.2344,611.9766 Q555.5781,611.9609 555.7656,611.8672 Q556.0469,611.7422 556.1328,611.5469 Q556.2188,611.3516 556.2188,611.1016 Z M556.7188,614.3516 Q556.7188,613.9766 556.5781,613.7656 Q556.4375,613.5547 556.0781,613.4609 Q555.8281,613.3828 555.4063,613.3828 Q554.9844,613.3828 554.5313,613.3828 L554.0781,613.3828 L554.0781,615.3672 L554.2188,615.3672 Q555.0938,615.3672 555.4688,615.3594 Q555.8438,615.3516 556.1563,615.2266 Q556.4844,615.0859 556.6016,614.8672 Q556.7188,614.6484 556.7188,614.3516 Z " fill="#000000"/><text fill="#000000" font-family="jetbrains mono" font-size="11" lengthAdjust="spacing" textLength="37" x="571" y="610.4189">Заявки</text><text fill="#000000" font-family="jetbrains mono" font-size="11" lengthAdjust="spacing" textLength="48" x="565.5" y="624.2549">клиентов</text><!--MD5=[3b4e087ccef411606df71ac2a3d2e476]
class database.nodetree--><rect codeLine="53" fill="#CCCCCC" filter="url(#f30l4szd3c2yq)" height="37.6719" id="database.nodetree" style="stroke:#AAAAAA;stroke-width:1.5;" width="65" x="547" y="521"/><ellipse cx="559" cy="539.8359" fill="#FFA600" rx="8" ry="8" style="stroke:#AAAAAA;stroke-width:1.0;"/><path d="M563.3594,541.3828 Q563.3594,541.9609 563.125,542.4219 Q562.8906,542.8828 562.4844,543.1797 Q562.0156,543.5391 561.4453,543.6875 Q560.875,543.8359 560.0156,543.8359 L556.5156,543.8359 L556.5156,535.8359 L559.625,535.8359 Q560.5938,535.8359 561.0391,535.8984 Q561.4844,535.9609 561.9219,536.1797 Q562.3906,536.4141 562.6094,536.8047 Q562.8281,537.1953 562.8281,537.6953 Q562.8281,538.2734 562.5234,538.7188 Q562.2188,539.1641 561.6563,539.4141 L561.6563,539.4453 Q562.4375,539.6016 562.8984,540.0938 Q563.3594,540.5859 563.3594,541.3828 Z M560.7188,538.1016 Q560.7188,537.8984 560.6172,537.7031 Q560.5156,537.5078 560.2656,537.4141 Q560.0469,537.3203 559.7109,537.3125 Q559.375,537.3047 558.7656,537.3047 L558.5781,537.3047 L558.5781,538.9922 L558.8906,538.9922 Q559.3906,538.9922 559.7344,538.9766 Q560.0781,538.9609 560.2656,538.8672 Q560.5469,538.7422 560.6328,538.5469 Q560.7188,538.3516 560.7188,538.1016 Z M561.2188,541.3516 Q561.2188,540.9766 561.0781,540.7656 Q560.9375,540.5547 560.5781,540.4609 Q560.3281,540.3828 559.9063,540.3828 Q559.4844,540.3828 559.0313,540.3828 L558.5781,540.3828 L558.5781,542.3672 L558.7188,542.3672 Q559.5938,542.3672 559.9688,542.3594 Q560.3438,542.3516 560.6563,542.2266 Q560.9844,542.0859 561.1016,541.8672 Q561.2188,541.6484 561.2188,541.3516 Z " fill="#000000"/><text fill="#000000" font-family="jetbrains mono" font-size="11" lengthAdjust="spacing" textLength="39" x="570" y="537.4189">Дерево</text><text fill="#000000" font-family="jetbrains mono" font-size="11" lengthAdjust="spacing" textLength="30" x="574.5" y="551.2549">узлов</text><!--MD5=[04108b64fd98f28bddf44bc2de04ca5d]
reverse link main.dealership to main.cars--><path codeLine="56" d="M141.46,246 C160.78,246 182.33,246 200.78,246 " fill="none" id="main.dealership-backto-main.cars" style="stroke:#000000;stroke-width:1.0;"/><polygon fill="#FFFFFF" points="128.19,246,134.19,250,140.19,246,134.19,242,128.19,246" style="stroke:#000000;stroke-width:1.0;"/><!--MD5=[c34af42f3b1b09131099cd530bd1574b]
reverse link main.dealership to main.salesdept--><path codeLine="57" d="M116.65,225.34 C145.76,204.7 190.15,173.24 218.48,153.15 " fill="none" id="main.dealership-backto-main.salesdept" style="stroke:#000000;stroke-width:1.0;"/><polygon fill="#FFFFFF" points="105.93,232.93,113.1383,232.7279,115.7241,225.9964,108.5158,226.1985,105.93,232.93" style="stroke:#000000;stroke-width:1.0;"/><!--MD5=[95858a4a6a0f2d52603f4a2d2740a5b7]
reverse link main.dealership to main.manager--><path codeLine="58" d="M123.77,265.28 C153.57,281.13 194.97,303.13 220.99,316.97 " fill="none" id="main.dealership-backto-main.manager" style="stroke:#000000;stroke-width:1.0;"/><polygon fill="#FFFFFF" points="112.19,259.12,115.6128,265.467,122.7881,264.7486,119.3652,258.4016,112.19,259.12" style="stroke:#000000;stroke-width:1.0;"/><!--MD5=[429071f8f60f6f8b10ae407094aca55b]
reverse link main.manager to main.caracc--><path codeLine="61" d="M280.57,349.84 C308.46,366.58 348.12,390.37 375.66,406.89 " fill="none" id="main.manager-backto-main.caracc" style="stroke:#000000;stroke-width:1.0;"/><polygon fill="#000000" points="269.41,343.15,272.5007,349.6652,279.7034,349.3181,276.6127,342.8029,269.41,343.15" style="stroke:#000000;stroke-width:1.0;"/><!--MD5=[8862cd26e0ab7d9d07a63376ec8b7acc]
reverse link main.manager to main.carbuy--><path codeLine="62" d="M298.8,337.37 C318.75,340.24 341.45,343.51 360.93,346.31 " fill="none" id="main.manager-backto-main.carbuy" style="stroke:#000000;stroke-width:1.0;"/><polygon fill="#000000" points="285.82,335.51,291.1865,340.3267,297.6967,337.2255,292.3302,332.4089,285.82,335.51" style="stroke:#000000;stroke-width:1.0;"/><!--MD5=[b759e7ab8a8fba80cd7fd00ec01c8c0f]
reverse link main.manager to main.carsell--><path codeLine="63" d="M298.51,314.06 C318.54,307.8 341.36,300.67 360.93,294.55 " fill="none" id="main.manager-backto-main.carsell" style="stroke:#000000;stroke-width:1.0;"/><polygon fill="#000000" points="285.82,318.02,292.7388,320.0524,297.2759,314.4475,290.3571,312.4151,285.82,318.02" style="stroke:#000000;stroke-width:1.0;"/><!--MD5=[2aa458244e87c42d5b9f19197cec39fe]
reverse link main.manager to main.carinfo--><path codeLine="64" d="M272.15,308.05 C292.92,289.92 323.67,263.86 352,243 C359.77,237.28 368.41,231.44 376.52,226.17 " fill="none" id="main.manager-backto-main.carinfo" style="stroke:#000000;stroke-width:1.0;"/><polygon fill="#000000" points="262.27,316.74,269.4168,315.7793,271.2788,308.8128,264.132,309.7734,262.27,316.74" style="stroke:#000000;stroke-width:1.0;"/><!--MD5=[25f696037ecb143b860b5604993b0584]
link main.carinfo to main.specs--><path codeLine="66" d="M461.58,216.55 C479.94,219.92 500.69,223.73 519.57,227.19 " fill="none" id="main.carinfo-to-main.specs" style="stroke:#000000;stroke-width:1.0;"/><polygon fill="#000000" points="524.84,228.16,516.705,222.6083,519.9213,227.2618,515.2679,230.4782,524.84,228.16" style="stroke:#000000;stroke-width:1.0;"/><!--MD5=[83f1ba982f9134448715d6a6fba6c4ce]
link main.carinfo to main.price--><path codeLine="67" d="M461.58,197.75 C490.2,192.68 524.65,186.56 548.72,182.29 " fill="none" id="main.carinfo-to-main.price" style="stroke:#000000;stroke-width:1.0;"/><polygon fill="#000000" points="553.69,181.4,544.131,179.0281,548.7664,182.2706,545.5239,186.9059,553.69,181.4" style="stroke:#000000;stroke-width:1.0;"/><!--MD5=[2e745b0a582e629a0c5f90c40e996784]
link main.salesdept to main.clientsearch--><path codeLine="69" d="M278.73,134 C303.73,134 339,134 366.31,134 " fill="none" id="main.salesdept-to-main.clientsearch" style="stroke:#000000;stroke-width:1.0;stroke-dasharray:7.0,7.0;"/><polygon fill="#000000" points="371.32,134,362.32,130,366.32,134,362.32,138,371.32,134" style="stroke:#000000;stroke-width:1.0;"/><!--MD5=[01d31acdaf0eb8229209d1066572763a]
reverse link main.salesdept to main.clientattract--><path codeLine="70" d="M290.72,114.28 C314.03,103.65 342.67,90.58 365.75,80.05 " fill="none" id="main.salesdept-backto-main.clientattract" style="stroke:#000000;stroke-width:1.0;"/><polygon fill="#000000" points="278.73,119.75,285.8498,120.8937,289.644,114.7615,282.5242,113.6178,278.73,119.75" style="stroke:#000000;stroke-width:1.0;"/><!--MD5=[b52c9326239312050cd8d872ef3a0f55]
reverse link main.reserve to main.manager--><path codeLine="72" d="M154.11,350.82 C172.25,346.69 191.28,342.35 207.25,338.71 " fill="none" id="main.reserve-backto-main.manager" style="stroke:#000000;stroke-width:1.0;"/><polygon fill="#FFFFFF" points="141.43,353.71,148.1684,356.2779,153.1304,351.0454,146.392,348.4776,141.43,353.71" style="stroke:#000000;stroke-width:1.0;"/><!--MD5=[2a4de007757b9141140cce229f7d3fe7]
link main.reserve to database.basedialog--><path codeLine="73" d="M96.91,385.06 C124.23,440.4 203.54,601.02 233.69,662.07 " fill="none" id="main.reserve-to-database.basedialog" style="stroke:#000000;stroke-width:1.0;stroke-dasharray:7.0,7.0;"/><polygon fill="#000000" points="235.94,666.64,235.5306,656.7997,233.7211,662.1593,228.3615,660.3499,235.94,666.64" style="stroke:#000000;stroke-width:1.0;"/><!--MD5=[a12f555ecbd805270f1f39dbd3cce203]
reverse link database.basedialog to database.dwinfoclient--><path codeLine="75" d="M261.24,724.08 C277.85,766.27 309.02,834.58 352,882 C358.07,888.69 365.59,894.74 373.12,899.92 " fill="none" id="database.basedialog-backto-database.dwinfoclient" style="stroke:#000000;stroke-width:1.0;"/><polygon fill="none" points="254.61,726.35,254.08,705.17,267.7,721.39,254.61,726.35" style="stroke:#000000;stroke-width:1.0;"/><!--MD5=[4cd313ab654e2fe2cd8a5848f4e0cfb2]
reverse link database.basedialog to database.dwinfocar--><path codeLine="76" d="M278.14,720.3 C298.39,742.37 325.92,771.26 352,795 C358.64,801.04 366,807.22 373.14,812.96 " fill="none" id="database.basedialog-backto-database.dwinfocar" style="stroke:#000000;stroke-width:1.0;"/><polygon fill="none" points="272.76,724.79,264.51,705.28,283.13,715.38,272.76,724.79" style="stroke:#000000;stroke-width:1.0;"/><!--MD5=[619ea1a5c3dedf1a02dcac289620f598]
reverse link database.basedialog to database.dwpaystatus--><path codeLine="77" d="M307.77,713.5 C327.09,722.31 348.05,731.87 365.74,739.95 " fill="none" id="database.basedialog-backto-database.dwpaystatus" style="stroke:#000000;stroke-width:1.0;"/><polygon fill="none" points="304.83,719.85,289.54,705.18,310.64,707.11,304.83,719.85" style="stroke:#000000;stroke-width:1.0;"/><!--MD5=[0f19e6cc7851ca2f66433ed7713a0fae]
reverse link database.basedialog to database.controlpanel--><path codeLine="79" d="M303.54,686 C323.65,686 345.98,686 364.78,686 " fill="none" id="database.basedialog-backto-database.controlpanel" style="stroke:#000000;stroke-width:1.0;"/><polygon fill="#000000" points="290.38,686,296.38,690,302.38,686,296.38,682,290.38,686" style="stroke:#000000;stroke-width:1.0;"/><!--MD5=[cc2f85ddf65ac444c109ff6780742900]
reverse link database.basedialog to database.tablist--><path codeLine="80" d="M301.51,661.36 C325.83,650.26 353.76,637.52 374.83,627.9 " fill="none" id="database.basedialog-backto-database.tablist" style="stroke:#000000;stroke-width:1.0;"/><polygon fill="#000000" points="289.54,666.82,296.6581,667.9741,300.4612,661.8474,293.3431,660.6933,289.54,666.82" style="stroke:#000000;stroke-width:1.0;"/><!--MD5=[7cdeaee1d44be419c8dba69b0cb24a98]
reverse link database.basedialog to database.appaccsystem--><path codeLine="81" d="M271.83,656.81 C292.01,633.53 322.13,600.81 352,576 C359.16,570.06 367.34,564.27 375.18,559.13 " fill="none" id="database.basedialog-backto-database.appaccsystem" style="stroke:#000000;stroke-width:1.0;"/><polygon fill="#000000" points="263.29,666.79,270.2313,664.836,271.0973,657.6771,264.156,659.6311,263.29,666.79" style="stroke:#000000;stroke-width:1.0;"/><!--MD5=[1d5fc38577612f85c429968227a05802]
reverse link database.appaccsystem to database.appclients--><path codeLine="83" d="M465.93,564.38 C491.14,575.27 520.12,587.78 542.36,597.39 " fill="none" id="database.appaccsystem-backto-database.appclients" style="stroke:#000000;stroke-width:1.0;"/><polygon fill="#000000" points="453.9,559.18,457.82,565.2326,464.9147,563.942,460.9947,557.8895,453.9,559.18" style="stroke:#000000;stroke-width:1.0;"/><!--MD5=[0eb769ebb7c9139d57baf71259ad18fb]
reverse link database.appaccsystem to database.nodetree--><path codeLine="84" d="M469,540 C495.21,540 524.95,540 546.81,540 " fill="none" id="database.appaccsystem-backto-database.nodetree" style="stroke:#000000;stroke-width:1.0;"/><polygon fill="#000000" points="455.68,540,461.68,544,467.68,540,461.68,536,455.68,540" style="stroke:#000000;stroke-width:1.0;"/><rect fill="#DDDDDD" height="80.4375" rx="5" ry="5" style="stroke:#000000;stroke-width:1.0;" width="185" x="8" y="968"/><text fill="#000000" font-family="jetbrains mono" font-size="14" lengthAdjust="spacing" textLength="94" x="14" y="987.5332">Типы классов:</text><text fill="#FF1700" font-family="jetbrains mono" font-size="14" font-weight="bold" lengthAdjust="spacing" textLength="27" x="14" y="1005.1426">( E )</text><text fill="#000000" font-family="jetbrains mono" font-size="14" lengthAdjust="spacing" textLength="112" x="45" y="1005.1426">- класс сущности</text><text fill="#FFA600" font-family="jetbrains mono" font-size="14" font-weight="bold" lengthAdjust="spacing" textLength="28" x="14" y="1022.752">( B )</text><text fill="#000000" font-family="jetbrains mono" font-size="14" lengthAdjust="spacing" textLength="119" x="46" y="1022.752">- граничный класс</text><text fill="#4D6910" font-family="jetbrains mono" font-size="14" font-weight="bold" lengthAdjust="spacing" textLength="28" x="14" y="1040.3613">( C )</text><text fill="#000000" font-family="jetbrains mono" font-size="14" lengthAdjust="spacing" textLength="141" x="46" y="1040.3613">- управляющий класс</text><!--MD5=[389957bce4571437f747e92e719d9c54]
@startuml PR3

!$ent = {"letter": "E", "color": "#ff1700"}
!$bnd = {"letter": "B", "color": "#ffa600"}
!$ctr = {"letter": "C", "color": "#4d6910"}

!theme reddress-lightred
hide members

skinparam BackgroundColor white
skinparam DefaultFontName "jetbrains mono"
skinparam ClassFontName "jetbrains mono"

legend left
Типы классов:
<color:$ent.color>**( $ent.letter )**</color> - класс сущности
<color:$bnd.color>**( $bnd.letter )**</color> - граничный класс
<color:$ctr.color>**( $ctr.letter )**</color> - управляющий класс
end legend

namespace main {
    class dealership as "Автосалон" << ($ent.letter, $ent.color) >>

    class cars as "Автомобили" << ($ent.letter, $ent.color) >>
    class salesdept as "Отдел\nпродаж" << ($ent.letter, $ent.color) >>
    class manager as "Менеджер" << ($ent.letter, $ent.color) >>

    class caracc as "Учет\nавтомобилей" << ($bnd.letter, $bnd.color) >>
    class carbuy as "Закупка\nавтомобилей" << ($bnd.letter, $bnd.color) >>
    class carsell as "Продажа\nавтомобилей" << ($bnd.letter, $bnd.color) >>
    class carinfo as "Представление\nинформации" << ($bnd.letter, $bnd.color) >>

    class specs as "Характеристики" << ($ent.letter, $ent.color) >>
    class price as "Цена" << ($ent.letter, $ent.color) >>

    class clientsearch as "Поиск\nклиентов" << ($ctr.letter, $ctr.color) >>
    class clientattract as "Привлечение\nклиентов" << ($bnd.letter, $bnd.color) >>

    class reserve as "Осуществление\nбронирования" << ($ctr.letter, $ctr.color) >>
}

namespace database {
    class basedialog as "Диалоговое\nокно БД" << ($bnd.letter, $bnd.color) >>

    class dwinfoclient as "Диалоговое окно\nданных клиента" << ($bnd.letter, $bnd.color) >>
    class dwinfocar as "Диалоговое окно\nинформации\nоб автомобиле" << ($bnd.letter, $bnd.color) >>
    class dwpaystatus as "Диалоговое окно\nстатуса оплаты" << ($bnd.letter, $bnd.color) >>

    class controlpanel as "Панель\nуправления" << ($bnd.letter, $bnd.color) >>
    class tablist as "Набор\nвкладок" << ($bnd.letter, $bnd.color) >>
    class appaccsystem as "Система\nучета заявок" << ($bnd.letter, $bnd.color) >>

    class appclients as "Заявки\nклиентов" << ($bnd.letter, $bnd.color) >>
    class nodetree as "Дерево\nузлов" << ($bnd.letter, $bnd.color) >>
}

main.dealership o- - main.cars
main.dealership o- - main.salesdept
main.dealership o- - main.manager

left to right direction
main.manager *- - main.caracc
main.manager *- - main.carbuy
main.manager *- - main.carsell
main.manager *- - main.carinfo

main.carinfo - -> main.specs
main.carinfo - -> main.price

main.salesdept ..> main.clientsearch
main.salesdept *- - main.clientattract

main.reserve o- - main.manager
main.reserve ..> database.basedialog

database.basedialog <|- - database.dwinfoclient
database.basedialog <|- - database.dwinfocar
database.basedialog <|- - database.dwpaystatus

database.basedialog *- - database.controlpanel
database.basedialog *- - database.tablist
database.basedialog *- - database.appaccsystem

database.appaccsystem *- - database.appclients
database.appaccsystem *- - database.nodetree
@enduml

@startuml PR3





skinparam stereotypeCBackgroundColor AA0033
skinparam backgroundColor fff







skinparam circledCharacter {
  radius 8
  fontSize 11
  fontName Verdana
}

skinparam class {
    backgroundColor ccc
  borderColor aaa
    fontColor 000
  fontName Verdana
  fontSize 11
  stereotypeFontColor 333
  stereotypeFontSize 11
    arrowColor 000
  arrowFontName Verdana
  arrowFontColor 333
  arrowFontSize 11

  attributeFontColor 333
  attributeFontSize 11
  attributeIconSize 11
}


skinparam actor {
    backgroundColor CC0033
  borderColor AA0033
    fontColor 000
  fontName Verdana
  fontSize 11
  stereotypeFontColor 333
  stereotypeFontSize 11
}

skinparam participant {
    backgroundColor ccc
  borderColor aaa
    fontColor 000
  fontName Verdana
  fontSize 11
  stereotypeFontColor 333
  stereotypeFontSize 11
}

skinparam collections {
    backgroundColor ccc
  borderColor aaa
    fontColor 000
  fontName Verdana
  fontSize 11
  stereotypeFontColor 333
  stereotypeFontSize 11
}

skinparam SequenceBox{
    backgroundColor e0e0e0
  borderColor cccccc
    fontColor 000
  fontName Verdana
  fontSize 11
  stereotypeFontColor 333
  stereotypeFontSize 11
}


skinparam interface {
    backgroundColor CC0033
  borderColor AA0033
    fontColor 000
  fontName Verdana
  fontSize 11
  stereotypeFontColor 333
  stereotypeFontSize 11
}

skinparam component {
    backgroundColor ccc
  borderColor aaa
    fontColor 000
  fontName Verdana
  fontSize 11
  stereotypeFontColor 333
  stereotypeFontSize 11
}

skinparam node {
    backgroundColor ccc
  borderColor aaa
    fontColor 000
  fontName Verdana
  fontSize 11
  stereotypeFontColor 333
  stereotypeFontSize 11
}

skinparam database {
    backgroundColor ccc
  borderColor aaa
    fontColor 000
  fontName Verdana
  fontSize 11
  stereotypeFontColor 333
  stereotypeFontSize 11
}

skinparam queue {
    backgroundColor ccc
  borderColor aaa
    fontColor 000
  fontName Verdana
  fontSize 11
  stereotypeFontColor 333
  stereotypeFontSize 11
}


skinparam usecase {
    backgroundColor ccc
  borderColor aaa
    fontColor 000
  fontName Verdana
  fontSize 11
  stereotypeFontColor 333
  stereotypeFontSize 11
    arrowColor 000
  arrowFontName Verdana
  arrowFontColor 333
  arrowFontSize 11
}

skinparam activity {
    backgroundColor ccc
  borderColor aaa
    fontColor 000
  fontName Verdana
  fontSize 11
  stereotypeFontColor 333
  stereotypeFontSize 11
    arrowColor 000
  arrowFontName Verdana
  arrowFontColor 333
  arrowFontSize 11
}

skinparam sequence {
    fontColor 000
  fontName Verdana
  fontSize 11
  stereotypeFontColor 333
  stereotypeFontSize 11
    arrowColor 000
  arrowFontName Verdana
  arrowFontColor 333
  arrowFontSize 11

  lifeLineBorderColor CC0033
  lifeLineBackgroundColor e0e0e0
}

skinparam boundary {
    backgroundColor CC0033
  borderColor AA0033
    fontColor 000
  fontName Verdana
  fontSize 11
  stereotypeFontColor 333
  stereotypeFontSize 11
}

skinparam control {
    backgroundColor CC0033
  borderColor AA0033
    fontColor 000
  fontName Verdana
  fontSize 11
  stereotypeFontColor 333
  stereotypeFontSize 11
}

skinparam entity {
    backgroundColor CC0033
  borderColor AA0033
    fontColor 000
  fontName Verdana
  fontSize 11
  stereotypeFontColor 333
  stereotypeFontSize 11
}


skinparam state {
    backgroundColor ccc
  borderColor aaa
    fontColor 000
  fontName Verdana
  fontSize 11
  stereotypeFontColor 333
  stereotypeFontSize 11
    arrowColor 000
  arrowFontName Verdana
  arrowFontColor 333
  arrowFontSize 11
  startColor CC0033
  endColor AA0033
}


skinparam object {
    backgroundColor ccc
  borderColor aaa
    fontColor 000
  fontName Verdana
  fontSize 11
  stereotypeFontColor 333
  stereotypeFontSize 11
    arrowColor 000
  arrowFontName Verdana
  arrowFontColor 333
  arrowFontSize 11
}


skinparam note {
    backgroundColor CC0033
  borderColor AA0033
    fontColor 000
  fontName Verdana
  fontSize 11
  stereotypeFontColor 333
  stereotypeFontSize 11
}

skinparam cloud {
    backgroundColor ccc
  borderColor aaa
    fontColor 000
  fontName Verdana
  fontSize 11
  stereotypeFontColor 333
  stereotypeFontSize 11
    arrowColor 000
  arrowFontName Verdana
  arrowFontColor 333
  arrowFontSize 11
}

skinparam rectangle {
    backgroundColor ccc
  borderColor aaa
    fontColor 000
  fontName Verdana
  fontSize 11
  stereotypeFontColor 333
  stereotypeFontSize 11
}

skinparam storage {
    backgroundColor ccc
  borderColor aaa
    fontColor 000
  fontName Verdana
  fontSize 11
  stereotypeFontColor 333
  stereotypeFontSize 11
}
hide members

skinparam BackgroundColor white
skinparam DefaultFontName "jetbrains mono"
skinparam ClassFontName "jetbrains mono"

legend left
Типы классов:
<color:#ff1700>**( E )**</color> - класс сущности
<color:#ffa600>**( B )**</color> - граничный класс
<color:#4d6910>**( C )**</color> - управляющий класс
end legend

namespace main {
    class dealership as "Автосалон" << (E, #ff1700) >>

    class cars as "Автомобили" << (E, #ff1700) >>
    class salesdept as "Отдел\nпродаж" << (E, #ff1700) >>
    class manager as "Менеджер" << (E, #ff1700) >>

    class caracc as "Учет\nавтомобилей" << (B, #ffa600) >>
    class carbuy as "Закупка\nавтомобилей" << (B, #ffa600) >>
    class carsell as "Продажа\nавтомобилей" << (B, #ffa600) >>
    class carinfo as "Представление\nинформации" << (B, #ffa600) >>

    class specs as "Характеристики" << (E, #ff1700) >>
    class price as "Цена" << (E, #ff1700) >>

    class clientsearch as "Поиск\nклиентов" << (C, #4d6910) >>
    class clientattract as "Привлечение\nклиентов" << (B, #ffa600) >>

    class reserve as "Осуществление\nбронирования" << (C, #4d6910) >>
}

namespace database {
    class basedialog as "Диалоговое\nокно БД" << (B, #ffa600) >>

    class dwinfoclient as "Диалоговое окно\nданных клиента" << (B, #ffa600) >>
    class dwinfocar as "Диалоговое окно\nинформации\nоб автомобиле" << (B, #ffa600) >>
    class dwpaystatus as "Диалоговое окно\nстатуса оплаты" << (B, #ffa600) >>

    class controlpanel as "Панель\nуправления" << (B, #ffa600) >>
    class tablist as "Набор\nвкладок" << (B, #ffa600) >>
    class appaccsystem as "Система\nучета заявок" << (B, #ffa600) >>

    class appclients as "Заявки\nклиентов" << (B, #ffa600) >>
    class nodetree as "Дерево\nузлов" << (B, #ffa600) >>
}

main.dealership o- - main.cars
main.dealership o- - main.salesdept
main.dealership o- - main.manager

left to right direction
main.manager *- - main.caracc
main.manager *- - main.carbuy
main.manager *- - main.carsell
main.manager *- - main.carinfo

main.carinfo - -> main.specs
main.carinfo - -> main.price

main.salesdept ..> main.clientsearch
main.salesdept *- - main.clientattract

main.reserve o- - main.manager
main.reserve ..> database.basedialog

database.basedialog <|- - database.dwinfoclient
database.basedialog <|- - database.dwinfocar
database.basedialog <|- - database.dwpaystatus

database.basedialog *- - database.controlpanel
database.basedialog *- - database.tablist
database.basedialog *- - database.appaccsystem

database.appaccsystem *- - database.appclients
database.appaccsystem *- - database.nodetree
@enduml

PlantUML version 1.2022.0(Tue Jan 11 19:16:42 MSK 2022)
(GPL source distribution)
Java Runtime: Java(TM) SE Runtime Environment
JVM: Java HotSpot(TM) 64-Bit Server VM
Default Encoding: Cp1251
Language: ru
Country: RU
--></g></svg>