<?xml version="1.0" encoding="UTF-8" standalone="no"?><svg xmlns="http://www.w3.org/2000/svg" xmlns:xlink="http://www.w3.org/1999/xlink" contentScriptType="application/ecmascript" contentStyleType="text/css" height="593px" preserveAspectRatio="none" style="width:786px;height:593px;background:#FFFFFF;" version="1.1" viewBox="0 0 786 593" width="786px" zoomAndPan="magnify"><defs><filter height="300%" id="fk3nrktfkamo9" width="300%" x="-1" y="-1"><feGaussianBlur result="blurOut" stdDeviation="2.0"/><feColorMatrix in="blurOut" result="blurOut2" type="matrix" values="0 0 0 0 0 0 0 0 0 0 0 0 0 0 0 0 0 0 .4 0"/><feOffset dx="4.0" dy="4.0" in="blurOut2" result="blurOut3"/><feBlend in="SourceGraphic" in2="blurOut3" mode="normal"/></filter></defs><g><!--MD5=[d2c01ec770881ebd6af0e19ca2e9bc34]
class Goods--><rect codeLine="12" fill="#CCCCCC" filter="url(#fk3nrktfkamo9)" height="135.2178" id="Goods" style="stroke:#AAAAAA;stroke-width:1.5;" width="134" x="409" y="7"/><ellipse cx="452.5" cy="20.4014" fill="#FF8800" rx="8" ry="8" style="stroke:#AAAAAA;stroke-width:1.0;"/><path d="M453.1406,24.5576 Q452.25,24.5576 451.4922,24.292 Q450.7344,24.0264 450.1875,23.5107 Q449.6563,22.9951 449.3516,22.2139 Q449.0469,21.4326 449.0469,20.417 Q449.0469,19.4639 449.3359,18.6904 Q449.625,17.917 450.1719,17.3545 Q450.6875,16.8232 451.4609,16.5342 Q452.2344,16.2451 453.1406,16.2451 Q453.6406,16.2451 454.0469,16.2998 Q454.4531,16.3545 454.7969,16.4482 Q455.1563,16.5576 455.4531,16.6826 Q455.75,16.8076 455.9688,16.917 L455.9688,18.8545 L455.7344,18.8545 Q455.5781,18.7295 455.3516,18.5498 Q455.125,18.3701 454.8281,18.1982 Q454.5313,18.0264 454.1875,17.9092 Q453.8438,17.792 453.4531,17.792 Q453.0156,17.792 452.625,17.9248 Q452.2344,18.0576 451.9063,18.3857 Q451.5938,18.6826 451.3984,19.1904 Q451.2031,19.6982 451.2031,20.417 Q451.2031,21.167 451.4141,21.6748 Q451.625,22.1826 451.9375,22.4639 Q452.2656,22.7607 452.6719,22.8857 Q453.0781,23.0107 453.4688,23.0107 Q453.8438,23.0107 454.2109,22.9014 Q454.5781,22.792 454.8906,22.5889 Q455.1563,22.4482 455.3828,22.2686 Q455.6094,22.0889 455.75,21.9639 L455.9688,21.9639 L455.9688,23.8701 Q455.6719,24.0107 455.3984,24.1279 Q455.125,24.2451 454.8125,24.3232 Q454.4219,24.4326 454.0781,24.4951 Q453.7344,24.5576 453.1406,24.5576 Z " fill="#000000"/><text fill="#000000" font-family="bahnschrift" font-size="14" lengthAdjust="spacing" textLength="40" x="468.5" y="25.918">Goods</text><line style="stroke:#AAAAAA;stroke-width:1.5;" x1="410" x2="542" y1="33.8027" y2="33.8027"/><text fill="#333333" font-family="bahnschrift" font-size="11" lengthAdjust="spacing" textLength="28" x="415" y="48.7383">id: int</text><text fill="#333333" font-family="bahnschrift" font-size="11" lengthAdjust="spacing" textLength="63" x="415" y="61.9404">name: string</text><text fill="#333333" font-family="bahnschrift" font-size="11" lengthAdjust="spacing" textLength="44" x="415" y="75.1426">price: int</text><text fill="#333333" font-family="bahnschrift" font-size="11" lengthAdjust="spacing" textLength="59" x="415" y="88.3447">quantity: int</text><line style="stroke:#AAAAAA;stroke-width:1.5;" x1="410" x2="542" y1="94.6113" y2="94.6113"/><text fill="#333333" font-family="bahnschrift" font-size="11" lengthAdjust="spacing" textLength="122" x="415" y="109.5469">string Name() {get; set;}</text><text fill="#333333" font-family="bahnschrift" font-size="11" lengthAdjust="spacing" textLength="102" x="415" y="122.749">int Price() {get; set;}</text><text fill="#333333" font-family="bahnschrift" font-size="11" lengthAdjust="spacing" textLength="117" x="415" y="135.9512">int Quantity() {get; set;}</text><!--MD5=[cf4d6237fcae255cd2e1656cf84a30e2]
class Order--><rect codeLine="23" fill="#CCCCCC" filter="url(#fk3nrktfkamo9)" height="174.8242" id="Order" style="stroke:#AAAAAA;stroke-width:1.5;" width="143" x="629" y="108"/><ellipse cx="678.5" cy="121.4014" fill="#FF8800" rx="8" ry="8" style="stroke:#AAAAAA;stroke-width:1.0;"/><path d="M679.1406,125.5576 Q678.25,125.5576 677.4922,125.292 Q676.7344,125.0264 676.1875,124.5107 Q675.6563,123.9951 675.3516,123.2139 Q675.0469,122.4326 675.0469,121.417 Q675.0469,120.4639 675.3359,119.6904 Q675.625,118.917 676.1719,118.3545 Q676.6875,117.8232 677.4609,117.5342 Q678.2344,117.2451 679.1406,117.2451 Q679.6406,117.2451 680.0469,117.2998 Q680.4531,117.3545 680.7969,117.4482 Q681.1563,117.5576 681.4531,117.6826 Q681.75,117.8076 681.9688,117.917 L681.9688,119.8545 L681.7344,119.8545 Q681.5781,119.7295 681.3516,119.5498 Q681.125,119.3701 680.8281,119.1982 Q680.5313,119.0264 680.1875,118.9092 Q679.8438,118.792 679.4531,118.792 Q679.0156,118.792 678.625,118.9248 Q678.2344,119.0576 677.9063,119.3857 Q677.5938,119.6826 677.3984,120.1904 Q677.2031,120.6982 677.2031,121.417 Q677.2031,122.167 677.4141,122.6748 Q677.625,123.1826 677.9375,123.4639 Q678.2656,123.7607 678.6719,123.8857 Q679.0781,124.0107 679.4688,124.0107 Q679.8438,124.0107 680.2109,123.9014 Q680.5781,123.792 680.8906,123.5889 Q681.1563,123.4482 681.3828,123.2686 Q681.6094,123.0889 681.75,122.9639 L681.9688,122.9639 L681.9688,124.8701 Q681.6719,125.0107 681.3984,125.1279 Q681.125,125.2451 680.8125,125.3232 Q680.4219,125.4326 680.0781,125.4951 Q679.7344,125.5576 679.1406,125.5576 Z " fill="#000000"/><text fill="#000000" font-family="bahnschrift" font-size="14" lengthAdjust="spacing" textLength="37" x="694.5" y="126.918">Order</text><line style="stroke:#AAAAAA;stroke-width:1.5;" x1="630" x2="771" y1="134.8027" y2="134.8027"/><text fill="#333333" font-family="bahnschrift" font-size="11" lengthAdjust="spacing" textLength="28" x="635" y="149.7383">id: int</text><text fill="#333333" font-family="bahnschrift" font-size="11" lengthAdjust="spacing" textLength="63" x="635" y="162.9404">buyer: Buyer</text><text fill="#333333" font-family="bahnschrift" font-size="11" lengthAdjust="spacing" textLength="73" x="635" y="176.1426">goods: Goods[]</text><text fill="#333333" font-family="bahnschrift" font-size="11" lengthAdjust="spacing" textLength="44" x="635" y="189.3447">price: int</text><text fill="#333333" font-family="bahnschrift" font-size="11" lengthAdjust="spacing" textLength="48" x="635" y="202.5469">paid: bool</text><line style="stroke:#AAAAAA;stroke-width:1.5;" x1="630" x2="771" y1="208.8135" y2="208.8135"/><text fill="#333333" font-family="bahnschrift" font-size="11" lengthAdjust="spacing" textLength="121" x="635" y="223.749">Buyer Buyer() {get; set;}</text><text fill="#333333" font-family="bahnschrift" font-size="11" lengthAdjust="spacing" textLength="131" x="635" y="236.9512">Goods[] Goods() {get; set;}</text><text fill="#333333" font-family="bahnschrift" font-size="11" lengthAdjust="spacing" textLength="0" x="638" y="250.1533"/><text fill="#333333" font-family="bahnschrift" font-size="11" lengthAdjust="spacing" textLength="102" x="635" y="263.3555">void ApplyDiscount()</text><text fill="#333333" font-family="bahnschrift" font-size="11" lengthAdjust="spacing" textLength="50" x="635" y="276.5576">void Pay()</text><!--MD5=[2a6a992e699eac248da01b98a6cecd43]
class Buyer--><rect codeLine="37" fill="#CCCCCC" filter="url(#fk3nrktfkamo9)" height="108.8135" id="Buyer" style="stroke:#AAAAAA;stroke-width:1.5;" width="107" x="15" y="229"/><ellipse cx="46.35" cy="242.4014" fill="#FF8800" rx="8" ry="8" style="stroke:#AAAAAA;stroke-width:1.0;"/><path d="M46.9906,246.5576 Q46.1,246.5576 45.3422,246.292 Q44.5844,246.0264 44.0375,245.5107 Q43.5063,244.9951 43.2016,244.2139 Q42.8969,243.4326 42.8969,242.417 Q42.8969,241.4639 43.1859,240.6904 Q43.475,239.917 44.0219,239.3545 Q44.5375,238.8232 45.3109,238.5342 Q46.0844,238.2451 46.9906,238.2451 Q47.4906,238.2451 47.8969,238.2998 Q48.3031,238.3545 48.6469,238.4482 Q49.0063,238.5576 49.3031,238.6826 Q49.6,238.8076 49.8188,238.917 L49.8188,240.8545 L49.5844,240.8545 Q49.4281,240.7295 49.2016,240.5498 Q48.975,240.3701 48.6781,240.1982 Q48.3813,240.0264 48.0375,239.9092 Q47.6938,239.792 47.3031,239.792 Q46.8656,239.792 46.475,239.9248 Q46.0844,240.0576 45.7563,240.3857 Q45.4438,240.6826 45.2484,241.1904 Q45.0531,241.6982 45.0531,242.417 Q45.0531,243.167 45.2641,243.6748 Q45.475,244.1826 45.7875,244.4639 Q46.1156,244.7607 46.5219,244.8857 Q46.9281,245.0107 47.3188,245.0107 Q47.6938,245.0107 48.0609,244.9014 Q48.4281,244.792 48.7406,244.5889 Q49.0063,244.4482 49.2328,244.2686 Q49.4594,244.0889 49.6,243.9639 L49.8188,243.9639 L49.8188,245.8701 Q49.5219,246.0107 49.2484,246.1279 Q48.975,246.2451 48.6625,246.3232 Q48.2719,246.4326 47.9281,246.4951 Q47.5844,246.5576 46.9906,246.5576 Z " fill="#000000"/><text fill="#000000" font-family="bahnschrift" font-size="14" lengthAdjust="spacing" textLength="38" x="61.65" y="247.918">Buyer</text><line style="stroke:#AAAAAA;stroke-width:1.5;" x1="16" x2="121" y1="255.8027" y2="255.8027"/><text fill="#333333" font-family="bahnschrift" font-size="11" lengthAdjust="spacing" textLength="28" x="21" y="270.7383">id: int</text><text fill="#333333" font-family="bahnschrift" font-size="11" lengthAdjust="spacing" textLength="51" x="21" y="283.9404">money: int</text><text fill="#333333" font-family="bahnschrift" font-size="11" lengthAdjust="spacing" textLength="63" x="21" y="297.1426">order: Order</text><line style="stroke:#AAAAAA;stroke-width:1.5;" x1="16" x2="121" y1="303.4092" y2="303.4092"/><text fill="#333333" font-family="bahnschrift" font-size="11" lengthAdjust="spacing" textLength="95" x="21" y="318.3447">void CreateOrder()</text><text fill="#333333" font-family="bahnschrift" font-size="11" lengthAdjust="spacing" textLength="79" x="21" y="331.5469">bool PayOrder()</text><!--MD5=[696ee820e96b7cd0d9933d0c6198e4ed]
class Cashier--><rect codeLine="46" fill="#CCCCCC" filter="url(#fk3nrktfkamo9)" height="135.2178" id="Cashier" style="stroke:#AAAAAA;stroke-width:1.5;" width="133" x="190" y="216"/><ellipse cx="228.5" cy="229.4014" fill="#FF8800" rx="8" ry="8" style="stroke:#AAAAAA;stroke-width:1.0;"/><path d="M229.1406,233.5576 Q228.25,233.5576 227.4922,233.292 Q226.7344,233.0264 226.1875,232.5107 Q225.6563,231.9951 225.3516,231.2139 Q225.0469,230.4326 225.0469,229.417 Q225.0469,228.4639 225.3359,227.6904 Q225.625,226.917 226.1719,226.3545 Q226.6875,225.8232 227.4609,225.5342 Q228.2344,225.2451 229.1406,225.2451 Q229.6406,225.2451 230.0469,225.2998 Q230.4531,225.3545 230.7969,225.4482 Q231.1563,225.5576 231.4531,225.6826 Q231.75,225.8076 231.9688,225.917 L231.9688,227.8545 L231.7344,227.8545 Q231.5781,227.7295 231.3516,227.5498 Q231.125,227.3701 230.8281,227.1982 Q230.5313,227.0264 230.1875,226.9092 Q229.8438,226.792 229.4531,226.792 Q229.0156,226.792 228.625,226.9248 Q228.2344,227.0576 227.9063,227.3857 Q227.5938,227.6826 227.3984,228.1904 Q227.2031,228.6982 227.2031,229.417 Q227.2031,230.167 227.4141,230.6748 Q227.625,231.1826 227.9375,231.4639 Q228.2656,231.7607 228.6719,231.8857 Q229.0781,232.0107 229.4688,232.0107 Q229.8438,232.0107 230.2109,231.9014 Q230.5781,231.792 230.8906,231.5889 Q231.1563,231.4482 231.3828,231.2686 Q231.6094,231.0889 231.75,230.9639 L231.9688,230.9639 L231.9688,232.8701 Q231.6719,233.0107 231.3984,233.1279 Q231.125,233.2451 230.8125,233.3232 Q230.4219,233.4326 230.0781,233.4951 Q229.7344,233.5576 229.1406,233.5576 Z " fill="#000000"/><text fill="#000000" font-family="bahnschrift" font-size="14" lengthAdjust="spacing" textLength="49" x="244.5" y="234.918">Cashier</text><line style="stroke:#AAAAAA;stroke-width:1.5;" x1="191" x2="322" y1="242.8027" y2="242.8027"/><text fill="#333333" font-family="bahnschrift" font-size="11" lengthAdjust="spacing" textLength="101" x="196" y="257.7383">currentOrder: Order</text><text fill="#333333" font-family="bahnschrift" font-size="11" lengthAdjust="spacing" textLength="101" x="196" y="270.9404">currentBuyer: Buyer</text><line style="stroke:#AAAAAA;stroke-width:1.5;" x1="191" x2="322" y1="277.207" y2="277.207"/><text fill="#333333" font-family="bahnschrift" font-size="11" lengthAdjust="spacing" textLength="121" x="196" y="292.1426">Buyer Buyer() {get; set;}</text><text fill="#333333" font-family="bahnschrift" font-size="11" lengthAdjust="spacing" textLength="0" x="199" y="305.3447"/><text fill="#333333" font-family="bahnschrift" font-size="11" lengthAdjust="spacing" textLength="95" x="196" y="318.5469">void CreateOrder()</text><text fill="#333333" font-family="bahnschrift" font-size="11" lengthAdjust="spacing" textLength="81" x="196" y="331.749">void EditOrder()</text><text fill="#333333" font-family="bahnschrift" font-size="11" lengthAdjust="spacing" textLength="79" x="196" y="344.9512">bool PayOrder()</text><!--MD5=[7421f545a0d8420c5bec41e74b387d9c]
class Employee--><rect codeLine="57" fill="#CCCCCC" filter="url(#fk3nrktfkamo9)" height="82.4092" id="Employee" style="stroke:#AAAAAA;stroke-width:1.5;" width="123" x="7" y="379.5"/><ellipse cx="34.3" cy="392.9014" fill="#FF8800" rx="8" ry="8" style="stroke:#AAAAAA;stroke-width:1.0;"/><path d="M34.9406,397.0576 Q34.05,397.0576 33.2922,396.792 Q32.5344,396.5264 31.9875,396.0107 Q31.4562,395.4951 31.1516,394.7139 Q30.8469,393.9326 30.8469,392.917 Q30.8469,391.9639 31.1359,391.1904 Q31.425,390.417 31.9719,389.8545 Q32.4875,389.3232 33.2609,389.0342 Q34.0344,388.7451 34.9406,388.7451 Q35.4406,388.7451 35.8469,388.7998 Q36.2531,388.8545 36.5969,388.9482 Q36.9563,389.0576 37.2531,389.1826 Q37.55,389.3076 37.7688,389.417 L37.7688,391.3545 L37.5344,391.3545 Q37.3781,391.2295 37.1516,391.0498 Q36.925,390.8701 36.6281,390.6982 Q36.3313,390.5264 35.9875,390.4092 Q35.6438,390.292 35.2531,390.292 Q34.8156,390.292 34.425,390.4248 Q34.0344,390.5576 33.7063,390.8857 Q33.3938,391.1826 33.1984,391.6904 Q33.0031,392.1982 33.0031,392.917 Q33.0031,393.667 33.2141,394.1748 Q33.425,394.6826 33.7375,394.9639 Q34.0656,395.2607 34.4719,395.3857 Q34.8781,395.5107 35.2688,395.5107 Q35.6438,395.5107 36.0109,395.4014 Q36.3781,395.292 36.6906,395.0889 Q36.9563,394.9482 37.1828,394.7686 Q37.4094,394.5889 37.55,394.4639 L37.7688,394.4639 L37.7688,396.3701 Q37.4719,396.5107 37.1984,396.6279 Q36.925,396.7451 36.6125,396.8232 Q36.2219,396.9326 35.8781,396.9951 Q35.5344,397.0576 34.9406,397.0576 Z " fill="#000000"/><text fill="#000000" font-family="bahnschrift" font-size="14" lengthAdjust="spacing" textLength="63" x="48.7" y="398.418">Employee</text><line style="stroke:#AAAAAA;stroke-width:1.5;" x1="8" x2="129" y1="406.3027" y2="406.3027"/><text fill="#333333" font-family="bahnschrift" font-size="11" lengthAdjust="spacing" textLength="28" x="13" y="421.2383">id: int</text><text fill="#333333" font-family="bahnschrift" font-size="11" lengthAdjust="spacing" textLength="51" x="13" y="434.4404">job: string</text><line style="stroke:#AAAAAA;stroke-width:1.5;" x1="8" x2="129" y1="440.707" y2="440.707"/><text fill="#333333" font-family="bahnschrift" font-size="11" lengthAdjust="spacing" textLength="111" x="13" y="455.6426">string Job() {get; set;}</text><!--MD5=[d022fdd827e32be882d23f02e1d982c4]
class Merchandiser--><rect codeLine="64" fill="#CCCCCC" filter="url(#fk3nrktfkamo9)" height="82.4092" id="Merchandiser" style="stroke:#AAAAAA;stroke-width:1.5;" width="126" x="193.5" y="386.5"/><ellipse cx="210.9" cy="399.9014" fill="#FF8800" rx="8" ry="8" style="stroke:#AAAAAA;stroke-width:1.0;"/><path d="M211.5406,404.0576 Q210.65,404.0576 209.8922,403.792 Q209.1344,403.5264 208.5875,403.0107 Q208.0563,402.4951 207.7516,401.7139 Q207.4469,400.9326 207.4469,399.917 Q207.4469,398.9639 207.7359,398.1904 Q208.025,397.417 208.5719,396.8545 Q209.0875,396.3232 209.8609,396.0342 Q210.6344,395.7451 211.5406,395.7451 Q212.0406,395.7451 212.4469,395.7998 Q212.8531,395.8545 213.1969,395.9482 Q213.5563,396.0576 213.8531,396.1826 Q214.15,396.3076 214.3688,396.417 L214.3688,398.3545 L214.1344,398.3545 Q213.9781,398.2295 213.7516,398.0498 Q213.525,397.8701 213.2281,397.6982 Q212.9313,397.5264 212.5875,397.4092 Q212.2438,397.292 211.8531,397.292 Q211.4156,397.292 211.025,397.4248 Q210.6344,397.5576 210.3063,397.8857 Q209.9938,398.1826 209.7984,398.6904 Q209.6031,399.1982 209.6031,399.917 Q209.6031,400.667 209.8141,401.1748 Q210.025,401.6826 210.3375,401.9639 Q210.6656,402.2607 211.0719,402.3857 Q211.4781,402.5107 211.8688,402.5107 Q212.2438,402.5107 212.6109,402.4014 Q212.9781,402.292 213.2906,402.0889 Q213.5563,401.9482 213.7828,401.7686 Q214.0094,401.5889 214.15,401.4639 L214.3688,401.4639 L214.3688,403.3701 Q214.0719,403.5107 213.7984,403.6279 Q213.525,403.7451 213.2125,403.8232 Q212.8219,403.9326 212.4781,403.9951 Q212.1344,404.0576 211.5406,404.0576 Z " fill="#000000"/><text fill="#000000" font-family="bahnschrift" font-size="14" lengthAdjust="spacing" textLength="88" x="223.1" y="405.418">Merchandiser</text><line style="stroke:#AAAAAA;stroke-width:1.5;" x1="194.5" x2="318.5" y1="413.3027" y2="413.3027"/><line style="stroke:#AAAAAA;stroke-width:1.5;" x1="194.5" x2="318.5" y1="421.3027" y2="421.3027"/><text fill="#333333" font-family="bahnschrift" font-size="11" lengthAdjust="spacing" textLength="114" x="199.5" y="436.2383">void UpdateOrderInfo()</text><text fill="#333333" font-family="bahnschrift" font-size="11" lengthAdjust="spacing" textLength="92" x="199.5" y="449.4404">bool OrderGoods()</text><text fill="#333333" font-family="bahnschrift" font-size="11" lengthAdjust="spacing" textLength="97" x="199.5" y="462.6426">bool UnloadGoods()</text><!--MD5=[6f6af049516bc56aac6e320b3234ce97]
class Supplier--><rect codeLine="70" fill="#CCCCCC" filter="url(#fk3nrktfkamo9)" height="82.4092" id="Supplier" style="stroke:#AAAAAA;stroke-width:1.5;" width="137" x="407.5" y="497.5"/><ellipse cx="445" cy="510.9014" fill="#FF8800" rx="8" ry="8" style="stroke:#AAAAAA;stroke-width:1.0;"/><path d="M445.6406,515.0576 Q444.75,515.0576 443.9922,514.792 Q443.2344,514.5264 442.6875,514.0107 Q442.1563,513.4951 441.8516,512.7139 Q441.5469,511.9326 441.5469,510.917 Q441.5469,509.9639 441.8359,509.1904 Q442.125,508.417 442.6719,507.8545 Q443.1875,507.3232 443.9609,507.0342 Q444.7344,506.7451 445.6406,506.7451 Q446.1406,506.7451 446.5469,506.7998 Q446.9531,506.8545 447.2969,506.9482 Q447.6563,507.0576 447.9531,507.1826 Q448.25,507.3076 448.4688,507.417 L448.4688,509.3545 L448.2344,509.3545 Q448.0781,509.2295 447.8516,509.0498 Q447.625,508.8701 447.3281,508.6982 Q447.0313,508.5264 446.6875,508.4092 Q446.3438,508.292 445.9531,508.292 Q445.5156,508.292 445.125,508.4248 Q444.7344,508.5576 444.4063,508.8857 Q444.0938,509.1826 443.8984,509.6904 Q443.7031,510.1982 443.7031,510.917 Q443.7031,511.667 443.9141,512.1748 Q444.125,512.6826 444.4375,512.9639 Q444.7656,513.2607 445.1719,513.3857 Q445.5781,513.5107 445.9688,513.5107 Q446.3438,513.5107 446.7109,513.4014 Q447.0781,513.292 447.3906,513.0889 Q447.6563,512.9482 447.8828,512.7686 Q448.1094,512.5889 448.25,512.4639 L448.4688,512.4639 L448.4688,514.3701 Q448.1719,514.5107 447.8984,514.6279 Q447.625,514.7451 447.3125,514.8232 Q446.9219,514.9326 446.5781,514.9951 Q446.2344,515.0576 445.6406,515.0576 Z " fill="#000000"/><text fill="#000000" font-family="bahnschrift" font-size="14" lengthAdjust="spacing" textLength="55" x="461" y="516.418">Supplier</text><line style="stroke:#AAAAAA;stroke-width:1.5;" x1="408.5" x2="543.5" y1="524.3027" y2="524.3027"/><text fill="#333333" font-family="bahnschrift" font-size="11" lengthAdjust="spacing" textLength="73" x="413.5" y="539.2383">goods: Goods[]</text><line style="stroke:#AAAAAA;stroke-width:1.5;" x1="408.5" x2="543.5" y1="545.5049" y2="545.5049"/><text fill="#333333" font-family="bahnschrift" font-size="11" lengthAdjust="spacing" textLength="96" x="413.5" y="560.4404">void SupplyGoods()</text><text fill="#333333" font-family="bahnschrift" font-size="11" lengthAdjust="spacing" textLength="125" x="413.5" y="573.6426">bool ManufactureGoods()</text><!--MD5=[ed3afe56f065d25b4329669e73deaf58]
class Database--><rect codeLine="77" fill="#CCCCCC" filter="url(#fk3nrktfkamo9)" height="214.4307" id="Database" style="stroke:#AAAAAA;stroke-width:1.5;" width="186" x="383" y="248.5"/><ellipse cx="443.5" cy="261.9014" fill="#FF8800" rx="8" ry="8" style="stroke:#AAAAAA;stroke-width:1.0;"/><path d="M444.1406,266.0576 Q443.25,266.0576 442.4922,265.792 Q441.7344,265.5264 441.1875,265.0107 Q440.6563,264.4951 440.3516,263.7139 Q440.0469,262.9326 440.0469,261.917 Q440.0469,260.9639 440.3359,260.1904 Q440.625,259.417 441.1719,258.8545 Q441.6875,258.3232 442.4609,258.0342 Q443.2344,257.7451 444.1406,257.7451 Q444.6406,257.7451 445.0469,257.7998 Q445.4531,257.8545 445.7969,257.9482 Q446.1563,258.0576 446.4531,258.1826 Q446.75,258.3076 446.9688,258.417 L446.9688,260.3545 L446.7344,260.3545 Q446.5781,260.2295 446.3516,260.0498 Q446.125,259.8701 445.8281,259.6982 Q445.5313,259.5264 445.1875,259.4092 Q444.8438,259.292 444.4531,259.292 Q444.0156,259.292 443.625,259.4248 Q443.2344,259.5576 442.9063,259.8857 Q442.5938,260.1826 442.3984,260.6904 Q442.2031,261.1982 442.2031,261.917 Q442.2031,262.667 442.4141,263.1748 Q442.625,263.6826 442.9375,263.9639 Q443.2656,264.2607 443.6719,264.3857 Q444.0781,264.5107 444.4688,264.5107 Q444.8438,264.5107 445.2109,264.4014 Q445.5781,264.292 445.8906,264.0889 Q446.1563,263.9482 446.3828,263.7686 Q446.6094,263.5889 446.75,263.4639 L446.9688,263.4639 L446.9688,265.3701 Q446.6719,265.5107 446.3984,265.6279 Q446.125,265.7451 445.8125,265.8232 Q445.4219,265.9326 445.0781,265.9951 Q444.7344,266.0576 444.1406,266.0576 Z " fill="#000000"/><text fill="#000000" font-family="bahnschrift" font-size="14" lengthAdjust="spacing" textLength="58" x="459.5" y="267.418">Database</text><line style="stroke:#AAAAAA;stroke-width:1.5;" x1="384" x2="568" y1="275.3027" y2="275.3027"/><text fill="#333333" font-family="bahnschrift" font-size="11" lengthAdjust="spacing" textLength="73" x="389" y="290.2383">goods: Goods[]</text><text fill="#333333" font-family="bahnschrift" font-size="11" lengthAdjust="spacing" textLength="75" x="389" y="303.4404">orders: Order[]</text><text fill="#333333" font-family="bahnschrift" font-size="11" lengthAdjust="spacing" textLength="113" x="389" y="316.6426">employees: Employee[]</text><line style="stroke:#AAAAAA;stroke-width:1.5;" x1="384" x2="568" y1="322.9092" y2="322.9092"/><text fill="#333333" font-family="bahnschrift" font-size="11" lengthAdjust="spacing" textLength="136" x="389" y="337.8447">Order Orders(id) {get; set;}</text><text fill="#333333" font-family="bahnschrift" font-size="11" lengthAdjust="spacing" textLength="134" x="389" y="351.0469">Goods Goods(id) {get; set;}</text><text fill="#333333" font-family="bahnschrift" font-size="11" lengthAdjust="spacing" textLength="174" x="389" y="364.249">Employee Employees(id) {get; set;}</text><text fill="#333333" font-family="bahnschrift" font-size="11" lengthAdjust="spacing" textLength="0" x="392" y="377.4512"/><text fill="#333333" font-family="bahnschrift" font-size="11" lengthAdjust="spacing" textLength="80" x="389" y="390.6533">bool AddOrder()</text><text fill="#333333" font-family="bahnschrift" font-size="11" lengthAdjust="spacing" textLength="101" x="389" y="403.8555">bool RemoveOrder()</text><text fill="#333333" font-family="bahnschrift" font-size="11" lengthAdjust="spacing" textLength="82" x="389" y="417.0576">bool AddGoods()</text><text fill="#333333" font-family="bahnschrift" font-size="11" lengthAdjust="spacing" textLength="103" x="389" y="430.2598">bool RemoveGoods()</text><text fill="#333333" font-family="bahnschrift" font-size="11" lengthAdjust="spacing" textLength="99" x="389" y="443.4619">bool AddEmployee()</text><text fill="#333333" font-family="bahnschrift" font-size="11" lengthAdjust="spacing" textLength="120" x="389" y="456.6641">bool RemoveEmployee()</text><!--MD5=[a5b52ab3be0ba19e247d2aeb80bc93f2]
link Order to Goods--><path codeLine="95" d="M628.95,157.13 C602.99,143.02 573.6,127.03 547.63,112.91 " fill="none" id="Order-to-Goods" style="stroke:#000000;stroke-width:1.0;"/><polygon fill="#000000" points="543.15,110.48,549.1446,118.2944,547.5422,112.8692,552.9674,111.2669,543.15,110.48" style="stroke:#000000;stroke-width:1.0;"/><text fill="#333333" font-family="Verdana" font-size="11" font-weight="bold" lengthAdjust="spacing" textLength="8" x="613.1589" y="164.9306">1</text><text fill="#333333" font-family="Verdana" font-size="11" font-weight="bold" lengthAdjust="spacing" textLength="8" x="550.932" y="126.1936">n</text><!--MD5=[3105658e3b0e17fcc7b59acd4e6ef463]
link Database to Order--><path codeLine="96" d="M569.11,289.27 C587.51,276.03 606.64,262.28 624.39,249.51 " fill="none" id="Database-to-Order" style="stroke:#000000;stroke-width:1.0;"/><polygon fill="#000000" points="628.87,246.29,619.2267,248.2919,624.8091,249.207,623.8939,254.7893,628.87,246.29" style="stroke:#000000;stroke-width:1.0;"/><text fill="#333333" font-family="Verdana" font-size="11" font-weight="bold" lengthAdjust="spacing" textLength="8" x="576.8485" y="295.5669">1</text><text fill="#333333" font-family="Verdana" font-size="11" font-weight="bold" lengthAdjust="spacing" textLength="8" x="613.0707" y="263.2852">n</text><!--MD5=[63bc6b1906f8c8fd783387e847d6d8a1]
reverse link Goods to Database--><path codeLine="97" d="M476,147.52 C476,181.17 476,214.83 476,248.48 " fill="none" id="Goods-backto-Database" style="stroke:#000000;stroke-width:1.0;"/><polygon fill="#000000" points="476,142.12,472,151.12,476,147.12,480,151.12,476,142.12" style="stroke:#000000;stroke-width:1.0;"/><text fill="#333333" font-family="Verdana" font-size="11" font-weight="bold" lengthAdjust="spacing" textLength="8" x="467.5625" y="161.2942">n</text><text fill="#333333" font-family="Verdana" font-size="11" font-weight="bold" lengthAdjust="spacing" textLength="8" x="467.7063" y="238.2002">1</text><!--MD5=[173bc82ecc53cec8e8492928baf611f9]
link Cashier to Database--><path codeLine="98" d="M323.05,305.2 C340.2,310.88 359.06,317.12 377.49,323.22 " fill="none" id="Cashier-to-Database" style="stroke:#000000;stroke-width:1.0;"/><polygon fill="#000000" points="382.67,324.94,375.3788,318.3189,377.9223,323.3717,372.8695,325.9152,382.67,324.94" style="stroke:#000000;stroke-width:1.0;"/><text fill="#333333" font-family="Verdana" font-size="11" font-weight="bold" lengthAdjust="spacing" textLength="8" x="331.2073" y="319.5284">n</text><text fill="#333333" font-family="Verdana" font-size="11" font-weight="bold" lengthAdjust="spacing" textLength="8" x="366.914" y="334.0793">1</text><!--MD5=[9b90c20941f6a1e75d04a70128cd4547]
link Cashier to Order--><path codeLine="99" d="M323.01,251.62 C341.98,243.56 362.97,235.72 383,230.5 C463.68,209.48 559.15,201.08 623.98,197.72 " fill="none" id="Cashier-to-Order" style="stroke:#000000;stroke-width:1.0;"/><polygon fill="#000000" points="628.99,197.47,619.7959,193.9389,623.9966,197.7275,620.208,201.9283,628.99,197.47" style="stroke:#000000;stroke-width:1.0;"/><text fill="#333333" font-family="Verdana" font-size="11" font-weight="bold" lengthAdjust="spacing" textLength="8" x="331.1627" y="259.7532">1</text><text fill="#333333" font-family="Verdana" font-size="11" font-weight="bold" lengthAdjust="spacing" textLength="8" x="613.203" y="209.4306">n</text><!--MD5=[816ccd9bde74daa3ef73d9325733fc85]
link Buyer to Cashier--><path codeLine="100" d="M122.3,283.5 C141.71,283.5 164.01,283.5 184.74,283.5 " fill="none" id="Buyer-to-Cashier" style="stroke:#000000;stroke-width:1.0;"/><polygon fill="#000000" points="189.97,283.5,180.97,279.5,184.97,283.5,180.97,287.5,189.97,283.5" style="stroke:#000000;stroke-width:1.0;"/><text fill="#333333" font-family="Verdana" font-size="11" font-weight="bold" lengthAdjust="spacing" textLength="8" x="130.0669" y="295.4698">1</text><text fill="#333333" font-family="Verdana" font-size="11" font-weight="bold" lengthAdjust="spacing" textLength="8" x="173.815" y="295.3194">n</text><!--MD5=[49e997c344f61d0b397560e82cd4fed3]
reverse link Employee to Cashier--><path codeLine="101" d="M136.02,371.51 C153.54,358.6 172.44,344.68 189.91,331.81 " fill="none" id="Employee-backto-Cashier" style="stroke:#000000;stroke-width:1.0;"/><polygon fill="#000000" points="125.31,379.4,132.5132,379.0617,134.9713,372.2825,127.7682,372.6208,125.31,379.4" style="stroke:#000000;stroke-width:1.0;"/><text fill="#333333" font-family="Verdana" font-size="11" font-weight="bold" lengthAdjust="spacing" textLength="8" x="126.3867" y="369.2743">1</text><text fill="#333333" font-family="Verdana" font-size="11" font-weight="bold" lengthAdjust="spacing" textLength="8" x="174.1892" y="348.8722">1</text><!--MD5=[6b32aa11fae89ee1964b5a3da8f56127]
reverse link Employee to Merchandiser--><path codeLine="102" d="M143.23,423.27 C159.82,423.9 177.28,424.56 193.34,425.16 " fill="none" id="Employee-backto-Merchandiser" style="stroke:#000000;stroke-width:1.0;"/><polygon fill="#000000" points="130.15,422.78,135.9965,427.0012,142.1416,423.228,136.2952,419.0068,130.15,422.78" style="stroke:#000000;stroke-width:1.0;"/><text fill="#333333" font-family="Verdana" font-size="11" font-weight="bold" lengthAdjust="spacing" textLength="8" x="138.1511" y="434.9067">1</text><text fill="#333333" font-family="Verdana" font-size="11" font-weight="bold" lengthAdjust="spacing" textLength="8" x="177.5746" y="436.6977">1</text><!--MD5=[a1dea04a5983b06eba9671c8a33f4862]
link Merchandiser to Supplier--><path codeLine="103" d="M319.54,459.16 C345.41,472.36 375.64,487.79 402.53,501.52 " fill="none" id="Merchandiser-to-Supplier" style="stroke:#000000;stroke-width:1.0;"/><polygon fill="#000000" points="407.16,503.88,400.9769,496.2139,402.7109,501.5984,397.3264,503.3324,407.16,503.88" style="stroke:#000000;stroke-width:1.0;"/><text fill="#333333" font-family="Verdana" font-size="11" font-weight="bold" lengthAdjust="spacing" textLength="8" x="327.2915" y="474.629">1</text><text fill="#333333" font-family="Verdana" font-size="11" font-weight="bold" lengthAdjust="spacing" textLength="8" x="391.6484" y="512.0371">n</text><!--MD5=[6baaa2252d2ebcdb58cb0fc6e15ab7e1]
link Merchandiser to Database--><path codeLine="104" d="M319.54,406.96 C337.79,400.92 358.2,394.16 378.09,387.58 " fill="none" id="Merchandiser-to-Database" style="stroke:#000000;stroke-width:1.0;"/><polygon fill="#000000" points="382.86,386,373.0595,385.0248,378.1123,387.5683,375.5688,392.6211,382.86,386" style="stroke:#000000;stroke-width:1.0;"/><text fill="#333333" font-family="Verdana" font-size="11" font-weight="bold" lengthAdjust="spacing" textLength="8" x="327.2915" y="416.3934">n</text><text fill="#333333" font-family="Verdana" font-size="11" font-weight="bold" lengthAdjust="spacing" textLength="8" x="367.1192" y="400.005">1</text><!--MD5=[1adefbd39d2f4d2b3c5d6b8f3431928c]
@startuml pr5-class-diagram
!theme reddress-lightorange
skinparam BackgroundColor white

skinparam DefaultFontName "bahnschrift"
skinparam ClassFontName "bahnschrift"

skinparam DefaultFontSize 13
skinparam ClassFontSize 14

skinparam ArrowFontStyle bold

class Goods {
    id: int
    name: string
    price: int
    quantity: int

    string Name() {get; set;}
    int Price() {get; set;}
    int Quantity() {get; set;}
}

class Order {
    id: int
    buyer: Buyer
    goods: Goods[]
    price: int
    paid: bool

    Buyer Buyer() {get; set;}
    Goods[] Goods() {get; set;}

    void ApplyDiscount()
    void Pay()
}

class Buyer {
    id: int
    money: int
    order: Order

    void CreateOrder()
    bool PayOrder()
}

class Cashier {
    currentOrder: Order
    currentBuyer: Buyer

    Buyer Buyer() {get; set;}

    void CreateOrder()
    void EditOrder()
    bool PayOrder()
}

class Employee {
    id: int
    job: string

    string Job() {get; set;}
}

class Merchandiser {
    void UpdateOrderInfo()
    bool OrderGoods()
    bool UnloadGoods()
}

class Supplier {
    goods: Goods[]

    void SupplyGoods()
    bool ManufactureGoods()
}

class Database {
    goods: Goods[]
    orders: Order[]
    employees: Employee[]

    Order Orders(id) {get; set;}
    Goods Goods(id) {get; set;}
    Employee Employees(id) {get; set;}

    bool AddOrder()
    bool RemoveOrder()
    bool AddGoods()
    bool RemoveGoods()
    bool AddEmployee()
    bool RemoveEmployee()
}

left to right direction
Order "1" - -> "n" Goods
Database "1" - -> "n" Order
Database "1" -left-> "n" Goods
Cashier "n" - -> "1" Database
Cashier "1" - -> "n" Order
Buyer "1" - -> "n" Cashier
Employee "1" *- - "1" Cashier
Employee "1" *- - "1" Merchandiser
Merchandiser "1" - -> "n" Supplier
Merchandiser "n" - -> "1" Database
@enduml

@startuml pr5-class-diagram



skinparam stereotypeCBackgroundColor FF8800
skinparam backgroundColor fff







skinparam circledCharacter {
  radius 8
  fontSize 11
  fontName Verdana
}

skinparam class {
    backgroundColor ccc
  borderColor aaa
    fontColor 000
  fontName Verdana
  fontSize 11
  stereotypeFontColor 333
  stereotypeFontSize 11
    arrowColor 000
  arrowFontName Verdana
  arrowFontColor 333
  arrowFontSize 11

  attributeFontColor 333
  attributeFontSize 11
  attributeIconSize 11
}


skinparam actor {
    backgroundColor FF8800
  borderColor BB6600
    fontColor 000
  fontName Verdana
  fontSize 11
  stereotypeFontColor 333
  stereotypeFontSize 11
}

skinparam participant {
    backgroundColor ccc
  borderColor aaa
    fontColor 000
  fontName Verdana
  fontSize 11
  stereotypeFontColor 333
  stereotypeFontSize 11
}

skinparam collections {
    backgroundColor ccc
  borderColor aaa
    fontColor 000
  fontName Verdana
  fontSize 11
  stereotypeFontColor 333
  stereotypeFontSize 11
}

skinparam SequenceBox{
    backgroundColor e0e0e0
  borderColor cccccc
    fontColor 000
  fontName Verdana
  fontSize 11
  stereotypeFontColor 333
  stereotypeFontSize 11
}


skinparam interface {
    backgroundColor FF8800
  borderColor BB6600
    fontColor 000
  fontName Verdana
  fontSize 11
  stereotypeFontColor 333
  stereotypeFontSize 11
}

skinparam component {
    backgroundColor ccc
  borderColor aaa
    fontColor 000
  fontName Verdana
  fontSize 11
  stereotypeFontColor 333
  stereotypeFontSize 11
}

skinparam node {
    backgroundColor ccc
  borderColor aaa
    fontColor 000
  fontName Verdana
  fontSize 11
  stereotypeFontColor 333
  stereotypeFontSize 11
}

skinparam database {
    backgroundColor ccc
  borderColor aaa
    fontColor 000
  fontName Verdana
  fontSize 11
  stereotypeFontColor 333
  stereotypeFontSize 11
}

skinparam queue {
    backgroundColor ccc
  borderColor aaa
    fontColor 000
  fontName Verdana
  fontSize 11
  stereotypeFontColor 333
  stereotypeFontSize 11
}


skinparam usecase {
    backgroundColor ccc
  borderColor aaa
    fontColor 000
  fontName Verdana
  fontSize 11
  stereotypeFontColor 333
  stereotypeFontSize 11
    arrowColor 000
  arrowFontName Verdana
  arrowFontColor 333
  arrowFontSize 11
}

skinparam activity {
    backgroundColor ccc
  borderColor aaa
    fontColor 000
  fontName Verdana
  fontSize 11
  stereotypeFontColor 333
  stereotypeFontSize 11
    arrowColor 000
  arrowFontName Verdana
  arrowFontColor 333
  arrowFontSize 11
}

skinparam sequence {
    fontColor 000
  fontName Verdana
  fontSize 11
  stereotypeFontColor 333
  stereotypeFontSize 11
    arrowColor 000
  arrowFontName Verdana
  arrowFontColor 333
  arrowFontSize 11

  lifeLineBorderColor FF8800
  lifeLineBackgroundColor e0e0e0
}

skinparam boundary {
    backgroundColor FF8800
  borderColor BB6600
    fontColor 000
  fontName Verdana
  fontSize 11
  stereotypeFontColor 333
  stereotypeFontSize 11
}

skinparam control {
    backgroundColor FF8800
  borderColor BB6600
    fontColor 000
  fontName Verdana
  fontSize 11
  stereotypeFontColor 333
  stereotypeFontSize 11
}

skinparam entity {
    backgroundColor FF8800
  borderColor BB6600
    fontColor 000
  fontName Verdana
  fontSize 11
  stereotypeFontColor 333
  stereotypeFontSize 11
}


skinparam state {
    backgroundColor ccc
  borderColor aaa
    fontColor 000
  fontName Verdana
  fontSize 11
  stereotypeFontColor 333
  stereotypeFontSize 11
    arrowColor 000
  arrowFontName Verdana
  arrowFontColor 333
  arrowFontSize 11
  startColor FF8800
  endColor BB6600
}


skinparam object {
    backgroundColor ccc
  borderColor aaa
    fontColor 000
  fontName Verdana
  fontSize 11
  stereotypeFontColor 333
  stereotypeFontSize 11
    arrowColor 000
  arrowFontName Verdana
  arrowFontColor 333
  arrowFontSize 11
}


skinparam note {
    backgroundColor FF8800
  borderColor BB6600
    fontColor 000
  fontName Verdana
  fontSize 11
  stereotypeFontColor 333
  stereotypeFontSize 11
}

skinparam cloud {
    backgroundColor ccc
  borderColor aaa
    fontColor 000
  fontName Verdana
  fontSize 11
  stereotypeFontColor 333
  stereotypeFontSize 11
    arrowColor 000
  arrowFontName Verdana
  arrowFontColor 333
  arrowFontSize 11
}

skinparam rectangle {
    backgroundColor ccc
  borderColor aaa
    fontColor 000
  fontName Verdana
  fontSize 11
  stereotypeFontColor 333
  stereotypeFontSize 11
}

skinparam storage {
    backgroundColor ccc
  borderColor aaa
    fontColor 000
  fontName Verdana
  fontSize 11
  stereotypeFontColor 333
  stereotypeFontSize 11
}
skinparam BackgroundColor white

skinparam DefaultFontName "bahnschrift"
skinparam ClassFontName "bahnschrift"

skinparam DefaultFontSize 13
skinparam ClassFontSize 14

skinparam ArrowFontStyle bold

class Goods {
    id: int
    name: string
    price: int
    quantity: int

    string Name() {get; set;}
    int Price() {get; set;}
    int Quantity() {get; set;}
}

class Order {
    id: int
    buyer: Buyer
    goods: Goods[]
    price: int
    paid: bool

    Buyer Buyer() {get; set;}
    Goods[] Goods() {get; set;}

    void ApplyDiscount()
    void Pay()
}

class Buyer {
    id: int
    money: int
    order: Order

    void CreateOrder()
    bool PayOrder()
}

class Cashier {
    currentOrder: Order
    currentBuyer: Buyer

    Buyer Buyer() {get; set;}

    void CreateOrder()
    void EditOrder()
    bool PayOrder()
}

class Employee {
    id: int
    job: string

    string Job() {get; set;}
}

class Merchandiser {
    void UpdateOrderInfo()
    bool OrderGoods()
    bool UnloadGoods()
}

class Supplier {
    goods: Goods[]

    void SupplyGoods()
    bool ManufactureGoods()
}

class Database {
    goods: Goods[]
    orders: Order[]
    employees: Employee[]

    Order Orders(id) {get; set;}
    Goods Goods(id) {get; set;}
    Employee Employees(id) {get; set;}

    bool AddOrder()
    bool RemoveOrder()
    bool AddGoods()
    bool RemoveGoods()
    bool AddEmployee()
    bool RemoveEmployee()
}

left to right direction
Order "1" - -> "n" Goods
Database "1" - -> "n" Order
Database "1" -left-> "n" Goods
Cashier "n" - -> "1" Database
Cashier "1" - -> "n" Order
Buyer "1" - -> "n" Cashier
Employee "1" *- - "1" Cashier
Employee "1" *- - "1" Merchandiser
Merchandiser "1" - -> "n" Supplier
Merchandiser "n" - -> "1" Database
@enduml

PlantUML version 1.2022.0(Tue Jan 11 19:16:42 MSK 2022)
(GPL source distribution)
Java Runtime: Java(TM) SE Runtime Environment
JVM: Java HotSpot(TM) 64-Bit Server VM
Default Encoding: Cp1251
Language: ru
Country: RU
--></g></svg>